SplineFontDB: 3.0
FontName: Elshan
FullName: Elshan
FamilyName: Elshan
Weight: Book
Copyright: Copyright (c) 2003 by Bitstream, Inc. All Rights Reserved.\nDejaVu changes are in public domain\nCopyright (c) 2015 by Saber Rastikerdar. All Rights Reserved.\nCopyright (c) 2017 by Jalil Hamdollahi. All Rights Reserved.
Version: 0.9.9; ttfautohint (v1.4.1.5-446e)
ItalicAngle: 0
UnderlinePosition: -100
UnderlineWidth: 100
Ascent: 1638
Descent: 410
sfntRevision: 0x0000e666
LayerCount: 2
Layer: 0 1 "Back"  1
Layer: 1 1 "Fore"  0
XUID: [1021 338 1247023337 10501927]
FSType: 0
OS2Version: 4
OS2_WeightWidthSlopeOnly: 0
OS2_UseTypoMetrics: 1
CreationTime: 1431850356
ModificationTime: 1507555739
PfmFamily: 17
TTFWeight: 400
TTFWidth: 5
LineGap: 0
VLineGap: 0
Panose: 2 11 6 3 3 8 4 2 2 4
OS2TypoAscent: 2250
OS2TypoAOffset: 0
OS2TypoDescent: -750
OS2TypoDOffset: 0
OS2TypoLinegap: 0
OS2WinAscent: 2250
OS2WinAOffset: 0
OS2WinDescent: 750
OS2WinDOffset: 0
HheadAscent: 2250
HheadAOffset: 0
HheadDescent: -750
HheadDOffset: 0
OS2SubXSize: 1331
OS2SubYSize: 1433
OS2SubXOff: 0
OS2SubYOff: 286
OS2SupXSize: 1331
OS2SupYSize: 1433
OS2SupXOff: 0
OS2SupYOff: 983
OS2StrikeYSize: 102
OS2StrikeYPos: 530
OS2Vendor: 'PfEd'
OS2CodePages: 600001ff.dfff0000
OS2UnicodeRanges: 80002003.80000000.00000008.00000000
Lookup: 6 1 0 "'ccmp' Glyph Composition/Decomposition lookup 0"  {"'ccmp' Glyph Composition/Decomposition lookup 0 subtable"  } ['ccmp' ('arab' <'KUR ' 'SND ' 'URD ' 'dflt' > 'hebr' <'dflt' > 'nko ' <'dflt' > ) ]
Lookup: 6 0 0 "'ccmp' Glyph Composition/Decomposition lookup 1"  {"'ccmp' Glyph Composition/Decomposition lookup 1 subtable"  } ['ccmp' ('cyrl' <'MKD ' 'SRB ' 'dflt' > 'grek' <'dflt' > 'latn' <'ISM ' 'KSM ' 'LSM ' 'MOL ' 'NSM ' 'ROM ' 'SKS ' 'SSM ' 'dflt' > ) ]

StartChar: .notdef
Encoding: 65536 -1 0
Width: 748
Flags: W
LayerCount: 2
Fore
SplineSet
68 0 m 1,0,-1
 68 1365 l 1,1,-1
 612 1365 l 1,2,-1
 612 0 l 1,3,-1
 68 0 l 1,0,-1
136 68 m 1,4,-1
 544 68 l 1,5,-1
 544 1297 l 1,6,-1
 136 1297 l 1,7,-1
 136 68 l 1,4,-1
EndSplineSet
EndChar

StartChar: exclam
Encoding: 33 33 4
Width: 821
GlyphClass: 2
Flags: W
LayerCount: 2
Fore
SplineSet
506 172 m 2,0,-1
 506 29 l 2,1,2
 506 0 506 0 484 0 c 2,3,-1
 342 0 l 2,4,5
 316 0 316 0 316 29 c 2,6,-1
 316 171 l 2,7,8
 316 198 316 198 342 198 c 2,9,-1
 480 198 l 2,10,11
 506 198 506 198 506 172 c 2,0,-1
319 1400 m 1,12,-1
 502 1400 l 1,13,-1
 483 351 l 1,14,-1
 339 351 l 1,15,-1
 319 1400 l 1,12,-1
EndSplineSet
EndChar

StartChar: parenleft
Encoding: 40 40 5
Width: 799
GlyphClass: 2
Flags: W
GlyphCompositionVertical: 3  .notdef%0,0,44,2703 .notdef%1,44,44,2731 .notdef%0,44,0,2740
LayerCount: 2
Fore
SplineSet
618 1544 m 1,0,1
 490 1320 490 1320 426 1102 c 1,2,3
 361 875 361 875 361 643 c 128,-1,4
 361 411 361 411 427 183 c 0,5,6
 491 -37 491 -37 618 -260 c 1,7,-1
 480 -260 l 1,8,9
 333 -28 333 -28 260 195 c 0,10,11
 186 421 186 421 186 643 c 0,12,13
 186 864 186 864 260 1089 c 0,14,15
 332 1311 332 1311 480 1544 c 1,16,-1
 618 1544 l 1,0,1
EndSplineSet
EndChar

StartChar: parenright
Encoding: 41 41 6
Width: 799
GlyphClass: 2
Flags: W
GlyphCompositionVertical: 3  .notdef%0,0,44,2703 .notdef%1,44,44,2731 .notdef%0,44,0,2740
LayerCount: 2
Fore
SplineSet
181 1544 m 1,0,-1
 318 1544 l 1,1,2
 466 1311 466 1311 539 1089 c 0,3,4
 613 864 613 864 613 643 c 0,5,6
 613 421 613 421 539 195 c 0,7,8
 466 -28 466 -28 319 -260 c 1,9,-1
 181 -260 l 1,10,11
 309 -37 309 -37 372 183 c 0,12,13
 438 411 438 411 438 643 c 128,-1,14
 438 875 438 875 372 1102 c 0,15,16
 308 1320 308 1320 181 1544 c 1,0,-1
EndSplineSet
EndChar

StartChar: asterisk
Encoding: 42 42 7
Width: 1024
GlyphClass: 2
Flags: W
LayerCount: 2
Fore
SplineSet
949 1251 m 1,0,-1
 583 1053 l 1,1,-1
 949 854 l 1,2,-1
 902 774 l 1,3,-1
 559 981 l 1,4,-1
 559 596 l 1,5,-1
 465 596 l 1,6,-1
 465 981 l 1,7,-1
 122 774 l 1,8,-1
 75 854 l 1,9,-1
 441 1053 l 1,10,-1
 75 1251 l 1,11,-1
 123 1332 l 1,12,-1
 450 1134 l 2,13,14
 457 1130 457 1130 465 1125 c 1,15,-1
 465 1510 l 1,16,-1
 559 1510 l 1,17,-1
 559 1125 l 1,18,19
 567 1130 567 1130 574 1134 c 2,20,-1
 901 1332 l 1,21,-1
 949 1251 l 1,0,-1
EndSplineSet
EndChar

StartChar: plus
Encoding: 43 43 8
Width: 1716
GlyphClass: 2
Flags: W
LayerCount: 2
Fore
SplineSet
932 1274 m 1,0,-1
 932 717 l 1,1,-1
 1489 717 l 1,2,-1
 1489 567 l 1,3,-1
 932 567 l 1,4,-1
 932 10 l 1,5,-1
 784 10 l 1,6,-1
 784 567 l 1,7,-1
 227 567 l 1,8,-1
 227 717 l 1,9,-1
 784 717 l 1,10,-1
 784 1274 l 1,11,-1
 932 1274 l 1,0,-1
EndSplineSet
EndChar

StartChar: period
Encoding: 46 46 9
Width: 651
GlyphClass: 2
Flags: W
LayerCount: 2
Fore
SplineSet
420 172 m 2,0,-1
 420 29 l 2,1,2
 420 0 420 0 396 0 c 2,3,-1
 254 0 l 2,4,5
 228 0 228 0 228 29 c 2,6,-1
 228 171 l 2,7,8
 228 198 228 198 254 198 c 2,9,-1
 394 198 l 2,10,11
 420 198 420 198 420 172 c 2,0,-1
EndSplineSet
EndChar

StartChar: slash
Encoding: 47 47 10
Width: 690
GlyphClass: 2
Flags: W
LayerCount: 2
Fore
SplineSet
527 1483 m 1,0,-1
 676 1483 l 1,1,-1
 163 -180 l 1,2,-1
 14 -180 l 1,3,-1
 527 1483 l 1,0,-1
EndSplineSet
EndChar

StartChar: colon
Encoding: 58 58 11
Width: 690
GlyphClass: 2
Flags: W
LayerCount: 2
Fore
SplineSet
440 780 m 2,0,-1
 440 637 l 2,1,2
 440 608 440 608 418 608 c 2,3,-1
 276 608 l 2,4,5
 250 608 250 608 250 637 c 2,6,-1
 250 779 l 2,7,8
 250 806 250 806 276 806 c 2,9,-1
 414 806 l 2,10,11
 440 806 440 806 440 780 c 2,0,-1
440 172 m 2,12,-1
 440 29 l 2,13,14
 440 0 440 0 418 0 c 2,15,-1
 276 0 l 2,16,17
 250 0 250 0 250 29 c 2,18,-1
 250 171 l 2,19,20
 250 198 250 198 276 198 c 2,21,-1
 414 198 l 2,22,23
 440 198 440 198 440 172 c 2,12,-1
EndSplineSet
EndChar

StartChar: equal
Encoding: 61 61 12
Width: 1716
GlyphClass: 2
Flags: W
GlyphCompositionHorizontal: 2  equal%0,0,44,1433 equal%1,44,0,1433
LayerCount: 2
Fore
SplineSet
227 920 m 1,0,-1
 1489 920 l 1,1,-1
 1489 772 l 1,2,-1
 227 772 l 1,3,-1
 227 920 l 1,0,-1
227 512 m 1,4,-1
 1489 512 l 1,5,-1
 1489 362 l 1,6,-1
 227 362 l 1,7,-1
 227 512 l 1,4,-1
EndSplineSet
EndChar

StartChar: backslash
Encoding: 92 92 13
Width: 690
GlyphClass: 2
Flags: W
LayerCount: 2
Fore
SplineSet
163 1483 m 1,0,-1
 676 -180 l 1,1,-1
 527 -180 l 1,2,-1
 14 1483 l 1,3,-1
 163 1483 l 1,0,-1
EndSplineSet
EndChar

StartChar: grave
Encoding: 96 96 14
Width: 1024
GlyphClass: 2
Flags: W
LayerCount: 2
Fore
SplineSet
362 1628 m 1,0,-1
 629 1274 l 1,1,-1
 501 1274 l 1,2,-1
 192 1628 l 1,3,-1
 362 1628 l 1,0,-1
EndSplineSet
EndChar

StartChar: braceleft
Encoding: 123 123 15
Width: 1303
GlyphClass: 2
Flags: W
GlyphCompositionVertical: 5  .notdef%0,0,44,2700 .notdef%1,44,44,2742 .notdef%0,44,44,2727 .notdef%1,44,44,2742 .notdef%0,44,0,2719
LayerCount: 2
Fore
SplineSet
1037 -200 m 1,0,-1
 1037 -324 l 1,1,-1
 985 -324 l 2,2,3
 740 -324 740 -324 658 -252 c 0,4,5
 577 -181 577 -181 577 35 c 2,6,-1
 577 274 l 2,7,8
 577 429 577 429 520 490 c 256,9,10
 463 551 463 551 317 551 c 2,11,-1
 266 551 l 1,12,-1
 266 674 l 1,13,-1
 317 674 l 2,14,15
 464 674 464 674 521 735 c 0,16,17
 577 795 577 795 577 948 c 2,18,-1
 577 1188 l 2,19,20
 577 1404 577 1404 658 1475 c 0,21,22
 740 1546 740 1546 985 1546 c 2,23,-1
 1037 1546 l 1,24,-1
 1037 1423 l 1,25,-1
 979 1423 l 2,26,27
 834 1423 834 1423 788 1376 c 128,-1,28
 742 1329 742 1329 742 1184 c 2,29,-1
 742 936 l 2,30,31
 742 782 742 782 698 713 c 0,32,33
 655 646 655 646 549 622 c 1,34,-1
 507 612 l 1,35,-1
 549 602 l 2,36,37
 656 576 656 576 699 509 c 1,38,39
 742 440 742 440 742 287 c 2,40,-1
 742 39 l 2,41,42
 742 -106 742 -106 788 -153 c 128,-1,43
 834 -200 834 -200 979 -200 c 2,44,-1
 1037 -200 l 1,0,-1
EndSplineSet
EndChar

StartChar: braceright
Encoding: 125 125 16
Width: 1303
GlyphClass: 2
Flags: W
GlyphCompositionVertical: 5  .notdef%0,0,44,2700 .notdef%1,44,44,2742 .notdef%0,44,44,2727 .notdef%1,44,44,2742 .notdef%0,44,0,2719
LayerCount: 2
Fore
SplineSet
266 -200 m 1,0,-1
 326 -200 l 2,1,2
 470 -200 470 -200 515.5 -154 c 128,-1,3
 561 -108 561 -108 561 39 c 2,4,-1
 561 287 l 2,5,6
 561 440 561 440 604 509 c 1,7,8
 647 576 647 576 754 602 c 2,9,-1
 796 612 l 1,10,-1
 754 622 l 1,11,12
 647 646 647 646 604 713 c 1,13,14
 561 782 561 782 561 936 c 2,15,-1
 561 1184 l 2,16,17
 561 1330 561 1330 515.5 1376.5 c 128,-1,18
 470 1423 470 1423 326 1423 c 2,19,-1
 266 1423 l 1,20,-1
 266 1546 l 1,21,-1
 319 1546 l 2,22,23
 564 1546 564 1546 645 1475 c 0,24,25
 725 1404 725 1404 725 1188 c 2,26,-1
 725 948 l 2,27,28
 725 795 725 795 782 735 c 0,29,30
 839 674 839 674 985 674 c 2,31,-1
 1037 674 l 1,32,-1
 1037 551 l 1,33,-1
 985 551 l 2,34,35
 839 551 839 551 782 490 c 256,36,37
 725 429 725 429 725 274 c 2,38,-1
 725 35 l 2,39,40
 725 -182 725 -182 645 -253 c 0,41,42
 564 -324 564 -324 319 -324 c 2,43,-1
 266 -324 l 1,44,-1
 266 -200 l 1,0,-1
EndSplineSet
EndChar

StartChar: guillemotleft
Encoding: 171 171 18
Width: 995
GlyphClass: 2
Flags: W
LayerCount: 2
Fore
SplineSet
437 931 m 1,0,-1
 303 931 l 1,1,-1
 294 917 l 2,2,3
 221 802 221 802 185 692 c 0,4,5
 148 580 148 580 148 469 c 0,6,7
 148 357 148 357 185 244 c 0,8,9
 221 134 221 134 294 19 c 2,10,-1
 303 5 l 1,11,-1
 437 5 l 1,12,-1
 411 50 l 2,13,14
 352 154 352 154 323 256 c 1,15,16
 292 361 292 361 292 468.5 c 128,-1,17
 292 576 292 576 322 680 c 0,18,19
 352 782 352 782 411 886 c 2,20,-1
 437 931 l 1,0,-1
813 931 m 1,21,-1
 679 931 l 1,22,-1
 670 917 l 2,23,24
 597 802 597 802 561 692 c 0,25,26
 524 580 524 580 524 469 c 0,27,28
 524 357 524 357 561 244 c 0,29,30
 597 134 597 134 670 19 c 2,31,-1
 679 5 l 1,32,-1
 813 5 l 1,33,-1
 787 50 l 2,34,35
 728 154 728 154 699 256 c 1,36,37
 668 361 668 361 668 468.5 c 128,-1,38
 668 576 668 576 698 680 c 0,39,40
 728 782 728 782 787 886 c 2,41,-1
 813 931 l 1,21,-1
EndSplineSet
EndChar

StartChar: guillemotright
Encoding: 187 187 19
Width: 992
GlyphClass: 2
Flags: W
LayerCount: 2
Fore
SplineSet
558 931 m 1,0,-1
 692 931 l 1,1,-1
 701 917 l 2,2,3
 774 802 774 802 810 692 c 0,4,5
 847 580 847 580 847 469 c 0,6,7
 847 357 847 357 810 244 c 0,8,9
 774 134 774 134 701 19 c 2,10,-1
 692 5 l 1,11,-1
 558 5 l 1,12,-1
 584 50 l 2,13,14
 643 154 643 154 672 256 c 1,15,16
 703 361 703 361 703 468.5 c 128,-1,17
 703 576 703 576 673 680 c 0,18,19
 643 782 643 782 584 886 c 2,20,-1
 558 931 l 1,0,-1
182 931 m 1,21,-1
 316 931 l 1,22,-1
 325 917 l 2,23,24
 398 802 398 802 434 692 c 0,25,26
 471 580 471 580 471 469 c 0,27,28
 471 357 471 357 434 244 c 0,29,30
 398 134 398 134 325 19 c 2,31,-1
 316 5 l 1,32,-1
 182 5 l 1,33,-1
 208 50 l 2,34,35
 267 154 267 154 296 256 c 1,36,37
 327 361 327 361 327 468.5 c 128,-1,38
 327 576 327 576 297 680 c 0,39,40
 267 782 267 782 208 886 c 2,41,-1
 182 931 l 1,21,-1
EndSplineSet
EndChar

StartChar: afii57388
Encoding: 1548 1548 20
Width: 664
GlyphClass: 2
Flags: W
LayerCount: 2
Fore
SplineSet
364 243 m 1,0,-1
 403 243 l 2,1,2
 471 243 471 243 471 190 c 2,3,-1
 471 60 l 2,4,5
 471 -1 471 -1 418 -1 c 2,6,-1
 297 -1 l 1,7,8
 236 2 236 2 236 57 c 2,9,-1
 236 203 l 1,10,11
 255 407 255 407 446 569 c 1,12,-1
 504 540 l 1,13,14
 365 387 365 387 364 243 c 1,0,-1
EndSplineSet
EndChar

StartChar: uni0615
Encoding: 1557 1557 21
Width: 0
GlyphClass: 4
Flags: W
AnchorPoint: "Anchor-5" 547 1279 mark 0
AnchorPoint: "Anchor-4" 547 1279 mark 0
AnchorPoint: "Anchor-1" 547 1975 basemark 0
AnchorPoint: "Anchor-1" 547 1279 mark 0
LayerCount: 2
Fore
SplineSet
466 1457 m 1,0,-1
 552 1457 l 2,1,2
 639 1457 639 1457 666 1473 c 0,3,4
 697 1492 697 1492 713 1508 c 128,-1,5
 729 1524 729 1524 729 1542 c 0,6,7
 729 1583 729 1583 689 1605 c 1,8,9
 681 1608 681 1608 672.5 1605.5 c 128,-1,10
 664 1603 664 1603 640.5 1592.5 c 128,-1,11
 617 1582 617 1582 602 1576 c 0,12,13
 543 1552 543 1552 483 1478 c 2,14,-1
 466 1457 l 1,0,-1
577 1375 m 2,15,-1
 283 1375 l 1,16,-1
 283 1457 l 1,17,-1
 369 1457 l 1,18,-1
 369 1884 l 1,19,-1
 452 1884 l 1,20,-1
 452 1498 l 1,21,-1
 477 1548 l 2,22,23
 513 1621 513 1621 620 1662 c 0,24,25
 683 1686 683 1686 753 1660 c 0,26,27
 814 1637 814 1637 814 1558 c 0,28,29
 814 1467 814 1467 751 1417 c 1,30,31
 696 1375 696 1375 577 1375 c 2,15,-1
EndSplineSet
EndChar

StartChar: uni061B
Encoding: 1563 1563 22
Width: 654
GlyphClass: 2
Flags: W
LayerCount: 2
Fore
SplineSet
345 597 m 1,0,-1
 383 597 l 2,1,2
 452 597 452 597 452 545 c 2,3,-1
 452 425 l 2,4,5
 452 354 452 354 399 354 c 2,6,-1
 278 354 l 2,7,8
 217 354 217 354 217 412 c 2,9,-1
 217 558 l 1,10,11
 236 761 236 761 427 924 c 1,12,-1
 485 894 l 1,13,14
 346 741 346 741 345 597 c 1,0,-1
428 172 m 2,15,-1
 428 29 l 2,16,17
 428 0 428 0 406 0 c 2,18,-1
 264 0 l 2,19,20
 238 0 238 0 238 29 c 2,21,-1
 238 171 l 2,22,23
 238 198 238 198 264 198 c 2,24,-1
 402 198 l 2,25,26
 428 198 428 198 428 172 c 2,15,-1
EndSplineSet
EndChar

StartChar: uni061F
Encoding: 1567 1567 23
Width: 1087
GlyphClass: 2
Flags: W
LayerCount: 2
Fore
SplineSet
694 172 m 2,0,-1
 694 29 l 2,1,2
 694 0 694 0 672 0 c 2,3,-1
 530 0 l 2,4,5
 504 0 504 0 504 29 c 2,6,-1
 504 171 l 2,7,8
 504 198 504 198 530 198 c 2,9,-1
 668 198 l 2,10,11
 694 198 694 198 694 172 c 2,0,-1
503 351 m 1,12,-1
 503 474 l 2,13,14
 503 526 503 526 500 556 c 128,-1,15
 497 586 497 586 491 607 c 0,16,17
 483 632 483 632 464 658 c 0,18,19
 441 689 441 689 397 732 c 2,20,-1
 309 818 l 1,21,22
 219 904 219 904 183 972.5 c 128,-1,23
 147 1041 147 1041 147 1117 c 0,24,25
 147 1276 147 1276 258.5 1373 c 128,-1,26
 370 1470 370 1470 554 1470 c 0,27,28
 657 1470 657 1470 753.5 1442 c 128,-1,29
 850 1414 850 1414 944 1357 c 1,30,-1
 873 1215 l 1,31,32
 704 1305 704 1305 589 1306 c 0,33,34
 481 1306 481 1306 415.5 1251 c 128,-1,35
 350 1196 350 1196 350 1107 c 0,36,37
 350 1058 350 1058 375.5 1011 c 128,-1,38
 401 964 401 964 458 911 c 1,39,-1
 548 822 l 1,40,41
 638 736 638 736 666 671 c 128,-1,42
 694 606 694 606 694 505 c 2,43,-1
 694 351 l 1,44,-1
 503 351 l 1,12,-1
EndSplineSet
EndChar

StartChar: uni0621
Encoding: 1569 1569 24
Width: 703
GlyphClass: 2
Flags: W
AnchorPoint: "Anchor-5" 308 992 basechar 0
AnchorPoint: "Anchor-3" 356 -199 basechar 0
LayerCount: 2
Fore
SplineSet
91 0 m 1,0,-1
 91 123 l 1,1,2
 124 132 124 132 209 158 c 1,3,4
 264 177 264 177 333 216 c 1,5,6
 95 257 95 257 95 460 c 0,7,8
 95 624 95 624 221.5 702 c 128,-1,9
 348 780 348 780 543 737 c 1,10,-1
 543 608 l 1,11,12
 466 629 466 629 410 628 c 0,13,14
 363 627 363 627 317 604 c 0,15,16
 226 558 226 558 227 452 c 1,17,18
 227 314 227 314 387 294 c 1,19,20
 444 288 444 288 518 295 c 0,21,22
 549 298 549 298 612 331 c 1,23,-1
 612 203 l 1,24,25
 534 153 534 153 366 88 c 0,26,27
 185 17 185 17 91 0 c 1,0,-1
EndSplineSet
EndChar

StartChar: uni0627
Encoding: 1575 1575 30
Width: 455
GlyphClass: 2
Flags: W
AnchorPoint: "Anchor-5" 208 1570 basechar 0
AnchorPoint: "Anchor-3" 215 -224 basechar 0
LayerCount: 2
Fore
SplineSet
130 1403 m 1,0,-1
 287 1471 l 1,1,-1
 287 2 l 1,2,-1
 181 2 l 1,3,-1
 130 1403 l 1,0,-1
EndSplineSet
Substitution2: "'fina' Terminal Forms in Arabic lookup 3 subtable" uniFE8E
EndChar

StartChar: uni062D
Encoding: 1581 1581 36
Width: 1221
GlyphClass: 2
Flags: W
AnchorPoint: "Anchor-5" 498 1163 basechar 0
AnchorPoint: "Anchor-3" 384 -742 basechar 0
LayerCount: 2
Fore
SplineSet
935 418 m 0,0,1
 704 390 704 390 553 303 c 0,2,3
 244 125 244 125 244 -135 c 0,4,5
 244 -283 244 -283 354 -371 c 1,6,7
 461 -458 461 -458 730 -459 c 0,8,9
 916 -459 916 -459 1081 -412 c 1,10,-1
 1130 -553 l 1,11,12
 938 -612 938 -612 732 -612 c 0,13,14
 344 -612 344 -612 194 -436 c 0,15,16
 91 -315 91 -315 91 -144 c 0,17,18
 91 39 91 39 181 175 c 0,19,20
 283 328 283 328 459 417 c 0,21,22
 663 520 663 520 840 527 c 1,23,24
 775 538 775 538 640 602 c 0,25,26
 508 664 508 664 474 664 c 0,27,28
 346 664 346 664 218 500 c 1,29,-1
 114 580 l 1,30,31
 234 756 234 756 362 797 c 0,32,33
 411 812 411 812 459 812 c 0,34,35
 489 812 489 812 514 805 c 0,36,37
 562 792 562 792 695 727 c 0,38,39
 859 647 859 647 936 620 c 0,40,41
 1012 594 1012 594 1097 583 c 1,42,-1
 1075 429 l 1,43,44
 955 420 955 420 935 418 c 0,0,1
EndSplineSet
Substitution2: "'init' Initial Forms in Arabic lookup 5 subtable" uniFEA3
Substitution2: "'medi' Medial Forms in Arabic lookup 4 subtable" uniFEA4
Substitution2: "'fina' Terminal Forms in Arabic lookup 3 subtable" uniFEA2
EndChar

StartChar: uni062F
Encoding: 1583 1583 38
Width: 933
GlyphClass: 2
Flags: W
AnchorPoint: "Anchor-5" 320 1103 basechar 0
AnchorPoint: "Anchor-3" 370 -207 basechar 0
LayerCount: 2
Fore
SplineSet
401 149 m 0,0,1
 570 156 570 156 653 215 c 1,2,3
 729 272 729 272 684 379 c 0,4,5
 601 574 601 574 354 763 c 1,6,-1
 440 895 l 1,7,8
 794 630 794 630 838 354 c 0,9,10
 857 232 857 232 793 142 c 1,11,12
 689 0 689 0 404 -14 c 0,13,14
 195 -24 195 -24 92 13 c 1,15,-1
 92 181 l 1,16,17
 215 141 215 141 401 149 c 0,0,1
EndSplineSet
Substitution2: "'fina' Terminal Forms in Arabic lookup 3 subtable" uniFEAA
EndChar

StartChar: uni0631
Encoding: 1585 1585 40
Width: 847
GlyphClass: 2
Flags: W
AnchorPoint: "Anchor-5" 443 942 basechar 0
AnchorPoint: "Anchor-3" 526 -631 basechar 0
LayerCount: 2
Fore
SplineSet
736 48 m 0,0,1
 657 -501 657 -501 95 -505 c 1,2,-1
 27 -381 l 1,3,4
 553 -344 553 -344 590 67 c 0,5,6
 599 170 599 170 519 464 c 1,7,-1
 660 562 l 1,8,9
 766 261 766 261 736 48 c 0,0,1
EndSplineSet
Substitution2: "'fina' Terminal Forms in Arabic lookup 3 subtable" uniFEAE
PairPos2: "'kern' Horizontal Kerning lookup 7 per glyph data 0" uniFEF3 dx=0 dy=0 dh=0 dv=0 dx=0 dy=0 dh=0 dv=0
PairPos2: "'kern' Horizontal Kerning lookup 7 per glyph data 0" uniFEEB dx=-150 dy=0 dh=-150 dv=0 dx=0 dy=0 dh=0 dv=0
PairPos2: "'kern' Horizontal Kerning lookup 7 per glyph data 0" uniFEE7 dx=-150 dy=0 dh=-150 dv=0 dx=0 dy=0 dh=0 dv=0
PairPos2: "'kern' Horizontal Kerning lookup 7 per glyph data 0" uniFEE3 dx=-150 dy=0 dh=-150 dv=0 dx=0 dy=0 dh=0 dv=0
PairPos2: "'kern' Horizontal Kerning lookup 7 per glyph data 0" uniFEDF dx=-150 dy=0 dh=-150 dv=0 dx=0 dy=0 dh=0 dv=0
PairPos2: "'kern' Horizontal Kerning lookup 7 per glyph data 0" uniFEDB dx=-250 dy=0 dh=-250 dv=0 dx=0 dy=0 dh=0 dv=0
PairPos2: "'kern' Horizontal Kerning lookup 7 per glyph data 0" uniFED7 dx=-150 dy=0 dh=-150 dv=0 dx=0 dy=0 dh=0 dv=0
PairPos2: "'kern' Horizontal Kerning lookup 7 per glyph data 0" uniFED3 dx=-150 dy=0 dh=-150 dv=0 dx=0 dy=0 dh=0 dv=0
PairPos2: "'kern' Horizontal Kerning lookup 7 per glyph data 0" uniFECF dx=-150 dy=0 dh=-150 dv=0 dx=0 dy=0 dh=0 dv=0
PairPos2: "'kern' Horizontal Kerning lookup 7 per glyph data 0" uniFECB dx=-150 dy=0 dh=-150 dv=0 dx=0 dy=0 dh=0 dv=0
PairPos2: "'kern' Horizontal Kerning lookup 7 per glyph data 0" uniFEC7 dx=-150 dy=0 dh=-150 dv=0 dx=0 dy=0 dh=0 dv=0
PairPos2: "'kern' Horizontal Kerning lookup 7 per glyph data 0" uniFEC3 dx=-150 dy=0 dh=-150 dv=0 dx=0 dy=0 dh=0 dv=0
PairPos2: "'kern' Horizontal Kerning lookup 7 per glyph data 0" uniFEBF dx=-150 dy=0 dh=-150 dv=0 dx=0 dy=0 dh=0 dv=0
PairPos2: "'kern' Horizontal Kerning lookup 7 per glyph data 0" uniFEBB dx=-150 dy=0 dh=-150 dv=0 dx=0 dy=0 dh=0 dv=0
PairPos2: "'kern' Horizontal Kerning lookup 7 per glyph data 0" uniFEB7 dx=-150 dy=0 dh=-150 dv=0 dx=0 dy=0 dh=0 dv=0
PairPos2: "'kern' Horizontal Kerning lookup 7 per glyph data 0" uniFEB3 dx=-150 dy=0 dh=-150 dv=0 dx=0 dy=0 dh=0 dv=0
PairPos2: "'kern' Horizontal Kerning lookup 7 per glyph data 0" uniFEA7 dx=-150 dy=0 dh=-150 dv=0 dx=0 dy=0 dh=0 dv=0
PairPos2: "'kern' Horizontal Kerning lookup 7 per glyph data 0" uniFEA3 dx=-150 dy=0 dh=-150 dv=0 dx=0 dy=0 dh=0 dv=0
PairPos2: "'kern' Horizontal Kerning lookup 7 per glyph data 0" uniFE9F dx=-150 dy=0 dh=-150 dv=0 dx=0 dy=0 dh=0 dv=0
PairPos2: "'kern' Horizontal Kerning lookup 7 per glyph data 0" uniFE9B dx=-150 dy=0 dh=-150 dv=0 dx=0 dy=0 dh=0 dv=0
PairPos2: "'kern' Horizontal Kerning lookup 7 per glyph data 0" uniFE97 dx=-150 dy=0 dh=-150 dv=0 dx=0 dy=0 dh=0 dv=0
PairPos2: "'kern' Horizontal Kerning lookup 7 per glyph data 0" uniFE91 dx=-70 dy=0 dh=-70 dv=0 dx=0 dy=0 dh=0 dv=0
PairPos2: "'kern' Horizontal Kerning lookup 7 per glyph data 0" uniFBFE dx=0 dy=0 dh=0 dv=0 dx=0 dy=0 dh=0 dv=0
PairPos2: "'kern' Horizontal Kerning lookup 7 per glyph data 0" uniFB94 dx=-250 dy=0 dh=-250 dv=0 dx=0 dy=0 dh=0 dv=0
PairPos2: "'kern' Horizontal Kerning lookup 7 per glyph data 0" uniFB90 dx=-250 dy=0 dh=-250 dv=0 dx=0 dy=0 dh=0 dv=0
PairPos2: "'kern' Horizontal Kerning lookup 7 per glyph data 0" uniFB8A dx=-100 dy=0 dh=-100 dv=0 dx=0 dy=0 dh=0 dv=0
PairPos2: "'kern' Horizontal Kerning lookup 7 per glyph data 0" uniFB7C dx=-100 dy=0 dh=-100 dv=0 dx=0 dy=0 dh=0 dv=0
PairPos2: "'kern' Horizontal Kerning lookup 7 per glyph data 0" uniFB58 dx=0 dy=0 dh=0 dv=0 dx=0 dy=0 dh=0 dv=0
PairPos2: "'kern' Horizontal Kerning lookup 7 per glyph data 0" uniFB56 dx=-150 dy=0 dh=-150 dv=0 dx=0 dy=0 dh=0 dv=0
PairPos2: "'kern' Horizontal Kerning lookup 7 per glyph data 0" uni06CC dx=-100 dy=0 dh=-100 dv=0 dx=0 dy=0 dh=0 dv=0
PairPos2: "'kern' Horizontal Kerning lookup 7 per glyph data 0" afii57509 dx=-150 dy=0 dh=-150 dv=0 dx=0 dy=0 dh=0 dv=0
PairPos2: "'kern' Horizontal Kerning lookup 7 per glyph data 0" uni06A9 dx=-150 dy=0 dh=-150 dv=0 dx=0 dy=0 dh=0 dv=0
PairPos2: "'kern' Horizontal Kerning lookup 7 per glyph data 0" afii57508 dx=-100 dy=0 dh=-100 dv=0 dx=0 dy=0 dh=0 dv=0
PairPos2: "'kern' Horizontal Kerning lookup 7 per glyph data 0" afii57506 dx=-150 dy=0 dh=-150 dv=0 dx=0 dy=0 dh=0 dv=0
PairPos2: "'kern' Horizontal Kerning lookup 7 per glyph data 0" uni0649 dx=-100 dy=0 dh=-100 dv=0 dx=0 dy=0 dh=0 dv=0
PairPos2: "'kern' Horizontal Kerning lookup 7 per glyph data 0" uni0648 dx=-100 dy=0 dh=-100 dv=0 dx=0 dy=0 dh=0 dv=0
PairPos2: "'kern' Horizontal Kerning lookup 7 per glyph data 0" uni0647 dx=-150 dy=0 dh=-150 dv=0 dx=0 dy=0 dh=0 dv=0
PairPos2: "'kern' Horizontal Kerning lookup 7 per glyph data 0" uni0646 dx=-100 dy=0 dh=-100 dv=0 dx=0 dy=0 dh=0 dv=0
PairPos2: "'kern' Horizontal Kerning lookup 7 per glyph data 0" uni0645 dx=-150 dy=0 dh=-150 dv=0 dx=0 dy=0 dh=0 dv=0
PairPos2: "'kern' Horizontal Kerning lookup 7 per glyph data 0" uni0644 dx=-100 dy=0 dh=-100 dv=0 dx=0 dy=0 dh=0 dv=0
PairPos2: "'kern' Horizontal Kerning lookup 7 per glyph data 0" uni0642 dx=-100 dy=0 dh=-100 dv=0 dx=0 dy=0 dh=0 dv=0
PairPos2: "'kern' Horizontal Kerning lookup 7 per glyph data 0" uni0641 dx=-150 dy=0 dh=-150 dv=0 dx=0 dy=0 dh=0 dv=0
PairPos2: "'kern' Horizontal Kerning lookup 7 per glyph data 0" uni0638 dx=-150 dy=0 dh=-150 dv=0 dx=0 dy=0 dh=0 dv=0
PairPos2: "'kern' Horizontal Kerning lookup 7 per glyph data 0" uni0637 dx=-150 dy=0 dh=-150 dv=0 dx=0 dy=0 dh=0 dv=0
PairPos2: "'kern' Horizontal Kerning lookup 7 per glyph data 0" uni0636 dx=-150 dy=0 dh=-150 dv=0 dx=0 dy=0 dh=0 dv=0
PairPos2: "'kern' Horizontal Kerning lookup 7 per glyph data 0" uni0635 dx=-150 dy=0 dh=-150 dv=0 dx=0 dy=0 dh=0 dv=0
PairPos2: "'kern' Horizontal Kerning lookup 7 per glyph data 0" uni0634 dx=-150 dy=0 dh=-150 dv=0 dx=0 dy=0 dh=0 dv=0
PairPos2: "'kern' Horizontal Kerning lookup 7 per glyph data 0" uni0633 dx=-150 dy=0 dh=-150 dv=0 dx=0 dy=0 dh=0 dv=0
PairPos2: "'kern' Horizontal Kerning lookup 7 per glyph data 0" uni0632 dx=-100 dy=0 dh=-100 dv=0 dx=0 dy=0 dh=0 dv=0
PairPos2: "'kern' Horizontal Kerning lookup 7 per glyph data 0" uni0631 dx=-100 dy=0 dh=-100 dv=0 dx=0 dy=0 dh=0 dv=0
PairPos2: "'kern' Horizontal Kerning lookup 7 per glyph data 0" uni0630 dx=-150 dy=0 dh=-150 dv=0 dx=0 dy=0 dh=0 dv=0
PairPos2: "'kern' Horizontal Kerning lookup 7 per glyph data 0" uni062F dx=-150 dy=0 dh=-150 dv=0 dx=0 dy=0 dh=0 dv=0
PairPos2: "'kern' Horizontal Kerning lookup 7 per glyph data 0" uni062B dx=-150 dy=0 dh=-150 dv=0 dx=0 dy=0 dh=0 dv=0
PairPos2: "'kern' Horizontal Kerning lookup 7 per glyph data 0" uni062A dx=-150 dy=0 dh=-150 dv=0 dx=0 dy=0 dh=0 dv=0
PairPos2: "'kern' Horizontal Kerning lookup 7 per glyph data 0" uni0629 dx=-150 dy=0 dh=-150 dv=0 dx=0 dy=0 dh=0 dv=0
PairPos2: "'kern' Horizontal Kerning lookup 7 per glyph data 0" uni0628 dx=-150 dy=0 dh=-150 dv=0 dx=0 dy=0 dh=0 dv=0
PairPos2: "'kern' Horizontal Kerning lookup 7 per glyph data 0" uni0627 dx=-170 dy=0 dh=-170 dv=0 dx=0 dy=0 dh=0 dv=0
PairPos2: "'kern' Horizontal Kerning lookup 7 per glyph data 0" uni0622 dx=-170 dy=0 dh=-170 dv=0 dx=0 dy=0 dh=0 dv=0
EndChar

StartChar: uni0633
Encoding: 1587 1587 42
Width: 2248
GlyphClass: 2
Flags: W
AnchorPoint: "Anchor-5" 536 846 basechar 0
AnchorPoint: "Anchor-3" 344 -664 basechar 0
LayerCount: 2
Fore
SplineSet
1864 171 m 0,0,1
 1966 163 1966 163 1995 225 c 1,2,3
 2031 305 2031 305 2016 423 c 0,4,5
 2009 476 2009 476 1979 645 c 1,6,-1
 2122 691 l 1,7,8
 2161 578 2161 578 2171 445 c 1,9,10
 2186 219 2186 219 2106 107 c 0,11,12
 2031 2 2031 2 1875 0 c 0,13,14
 1713 -2 1713 -2 1647 144 c 1,15,16
 1601 4 1601 4 1432 1.5 c 128,-1,17
 1263 -1 1263 -1 1224 74 c 1,18,19
 1219 -481 1219 -481 662 -488 c 0,20,21
 121 -495 121 -495 91 10 c 0,22,23
 87 85 87 85 107 191 c 0,24,25
 129 302 129 302 177 402 c 1,26,-1
 321 353 l 1,27,28
 232 137 232 137 251 -2 c 0,29,30
 294 -330 294 -330 657 -331 c 0,31,32
 1044 -332 1044 -332 1085 0 c 0,33,34
 1112 215 1112 215 980 384 c 1,35,-1
 1113 511 l 1,36,37
 1148 429 1148 429 1205 287 c 1,38,39
 1259 164 1259 164 1409 164 c 0,40,41
 1543 164 1543 164 1563 348 c 2,42,-1
 1584 540 l 1,43,-1
 1704 540 l 1,44,-1
 1730 377 l 2,45,46
 1762 180 1762 180 1864 171 c 0,0,1
EndSplineSet
Substitution2: "'init' Initial Forms in Arabic lookup 5 subtable" uniFEB3
Substitution2: "'medi' Medial Forms in Arabic lookup 4 subtable" uniFEB4
Substitution2: "'fina' Terminal Forms in Arabic lookup 3 subtable" uniFEB2
EndChar

StartChar: uni0635
Encoding: 1589 1589 44
Width: 2409
GlyphClass: 2
Flags: W
AnchorPoint: "Anchor-5" 432 846 basechar 0
AnchorPoint: "Anchor-3" 397 -701 basechar 0
LayerCount: 2
Fore
SplineSet
1437 180 m 1,0,-1
 1616 180 l 2,1,2
 1915 180 1915 180 2025 223 c 0,3,4
 2139 267 2139 267 2157 354 c 1,5,6
 2166 425 2166 425 2134 469 c 0,7,8
 2097 520 2097 520 2020 531 c 0,9,10
 1889 550 1889 550 1753 465 c 1,11,12
 1569 353 1569 353 1437 180 c 1,0,-1
1674 0 m 1,13,14
 1674 0 1674 0 1371 -2 c 0,15,16
 1297 -2 1297 -2 1241 74 c 1,17,-1
 1224 74 l 1,18,19
 1219 -481 1219 -481 662 -488 c 0,20,21
 121 -495 121 -495 91 10 c 0,22,23
 87 85 87 85 107 191 c 0,24,25
 129 302 129 302 177 402 c 1,26,-1
 321 353 l 1,27,28
 232 137 232 137 251 -2 c 0,29,30
 294 -330 294 -330 657 -331 c 0,31,32
 1044 -332 1044 -332 1085 0 c 0,33,34
 1112 215 1112 215 980 384 c 1,35,-1
 1113 511 l 1,36,37
 1148 429 1148 429 1205 287 c 1,38,39
 1233 231 1233 231 1296 229 c 1,40,41
 1519 552 1519 552 1767 658 c 1,42,43
 2004 761 2004 761 2183 654 c 0,44,45
 2347 556 2347 556 2316 329 c 0,46,47
 2299 198 2299 198 2170 107 c 0,48,49
 2018 0 2018 0 1674 0 c 1,13,14
EndSplineSet
Substitution2: "'init' Initial Forms in Arabic lookup 5 subtable" uniFEBB
Substitution2: "'medi' Medial Forms in Arabic lookup 4 subtable" uniFEBC
Substitution2: "'fina' Terminal Forms in Arabic lookup 3 subtable" uniFEBA
EndChar

StartChar: uni0637
Encoding: 1591 1591 46
Width: 1488
GlyphClass: 2
Flags: W
AnchorPoint: "Anchor-5" 285 1604 basechar 0
AnchorPoint: "Anchor-3" 707 -258 basechar 0
LayerCount: 2
Fore
SplineSet
518 180 m 1,0,-1
 697 180 l 2,1,2
 996 180 996 180 1106 223 c 0,3,4
 1220 267 1220 267 1238 354 c 1,5,6
 1247 425 1247 425 1215 469 c 0,7,8
 1178 520 1178 520 1102 531 c 0,9,10
 970 550 970 550 834 465 c 1,11,12
 650 353 650 353 518 180 c 1,0,-1
755 0 m 2,13,-1
 92 0 l 1,14,-1
 92 169 l 1,15,-1
 259 169 l 1,16,-1
 218 1408 l 1,17,-1
 377 1471 l 1,18,-1
 377 229 l 1,19,20
 601 552 601 552 848 658 c 1,21,22
 1085 761 1085 761 1264 654 c 0,23,24
 1428 556 1428 556 1397 329 c 0,25,26
 1380 198 1380 198 1251 107 c 0,27,28
 1099 0 1099 0 755 0 c 2,13,-1
EndSplineSet
Substitution2: "'init' Initial Forms in Arabic lookup 5 subtable" uniFEC3
Substitution2: "'medi' Medial Forms in Arabic lookup 4 subtable" uniFEC4
Substitution2: "'fina' Terminal Forms in Arabic lookup 3 subtable" uniFEC2
EndChar

StartChar: uni0639
Encoding: 1593 1593 48
Width: 1171
GlyphClass: 2
Flags: W
AnchorPoint: "Anchor-5" 520 1410 basechar 0
AnchorPoint: "Anchor-3" 288 -729 basechar 0
LayerCount: 2
Fore
SplineSet
249 -135 m 0,0,1
 249 -283 249 -283 359 -371 c 1,2,3
 466 -458 466 -458 735 -459 c 0,4,5
 874 -459 874 -459 1032 -413 c 1,6,-1
 1080 -556 l 1,7,8
 898 -612 898 -612 740 -612 c 0,9,10
 332 -612 332 -612 186 -440 c 0,11,12
 89 -325 89 -325 89 -144 c 0,13,14
 89 36 89 36 186 175 c 1,15,16
 284 313 284 313 422 374 c 1,17,18
 321 398 321 398 259 485 c 0,19,20
 196 572 196 572 196 680 c 0,21,22
 196 787 196 787 247 870 c 1,23,24
 299 952 299 952 405 989 c 0,25,26
 468 1011 468 1011 518 1011 c 0,27,28
 687 1011 687 1011 824 933 c 1,29,-1
 786 805 l 1,30,31
 661 865 661 865 555 865 c 0,32,33
 342 865 342 865 342 683 c 0,34,35
 342 549 342 549 494 485 c 0,36,37
 540 466 540 466 576 466 c 256,38,39
 612 466 612 466 685 476 c 0,40,41
 757 485 757 485 819 492 c 0,42,43
 881 498 881 498 943 507 c 1,44,-1
 943 357 l 1,45,46
 703 340 703 340 510 239 c 1,47,48
 249 100 249 100 249 -135 c 0,0,1
EndSplineSet
Substitution2: "'init' Initial Forms in Arabic lookup 5 subtable" uniFECB
Substitution2: "'medi' Medial Forms in Arabic lookup 4 subtable" uniFECC
Substitution2: "'fina' Terminal Forms in Arabic lookup 3 subtable" uniFECA
EndChar

StartChar: afii57440
Encoding: 1600 1600 50
Width: 642
GlyphClass: 2
Flags: W
AnchorPoint: "Anchor-5" 321 1274 basechar 0
AnchorPoint: "Anchor-3" 321 -116 basechar 0
LayerCount: 2
Fore
SplineSet
-10 0 m 1,0,-1
 -10 169 l 1,1,-1
 652 169 l 1,2,-1
 652 0 l 1,3,-1
 -10 0 l 1,0,-1
EndSplineSet
EndChar

StartChar: uni0643
Encoding: 1603 1603 53
Width: 1734
GlyphClass: 2
Flags: W
AnchorPoint: "Anchor-5" 531 1394 basechar 0
AnchorPoint: "Anchor-3" 479 -223 basechar 0
LayerCount: 2
Fore
SplineSet
1045 1181 m 1,0,-1
 1045 1129 l 1,1,2
 975 1124 975 1124 937 1110 c 0,3,4
 839 1073 839 1073 839 1026 c 0,5,6
 839 989 839 989 858 965 c 0,7,8
 875 942 875 942 955 931 c 1,9,10
 1005 923 1005 923 1030 901 c 1,11,12
 1054 878 1054 878 1054 838 c 0,13,14
 1054 742 1054 742 965 692 c 0,15,16
 896 653 896 653 802 652 c 0,17,18
 742 652 742 652 689 661 c 1,19,-1
 689 719 l 1,20,21
 750 711 750 711 792 711 c 0,22,23
 867 711 867 711 915 730 c 0,24,25
 999 763 999 763 999 817 c 0,26,27
 999 877 999 877 902 893 c 0,28,29
 845 902 845 902 814 933.5 c 128,-1,30
 783 965 783 965 784 1022 c 0,31,32
 786 1098 786 1098 857 1134 c 0,33,34
 937 1174 937 1174 1045 1181 c 1,0,-1
804 170 m 0,35,36
 1009 164 1009 164 1131 176 c 0,37,38
 1494 214 1494 214 1512 381 c 1,39,-1
 1517 436 l 1,40,-1
 1517 437 l 1,41,-1
 1472 1409 l 1,42,-1
 1633 1471 l 1,43,-1
 1633 407 l 2,44,45
 1633 389 1633 389 1631 351 c 0,46,47
 1616 137 1616 137 1326 46 c 0,48,49
 1178 0 1178 0 911 2 c 0,50,51
 570 5 570 5 451 38 c 0,52,53
 131 129 131 129 97 453 c 0,54,55
 85 568 85 568 131 698 c 1,56,-1
 285 668 l 1,57,58
 253 531 253 531 262 472 c 0,59,60
 296 248 296 248 524 193 c 0,61,62
 595 176 595 176 804 170 c 0,35,36
EndSplineSet
Substitution2: "'init' Initial Forms in Arabic lookup 5 subtable" uniFEDB
Substitution2: "'medi' Medial Forms in Arabic lookup 4 subtable" uniFEDC
Substitution2: "'fina' Terminal Forms in Arabic lookup 3 subtable" uniFEDA
EndChar

StartChar: uni0644
Encoding: 1604 1604 54
Width: 1311
GlyphClass: 2
Flags: W
AnchorPoint: "Anchor-5" 487 1019 basechar 0
AnchorPoint: "Anchor-3" 384 -627 basechar 0
LayerCount: 2
Fore
SplineSet
1175 179 m 1,0,1
 1173 16 1173 16 1114 -125 c 0,2,3
 1004 -385 1004 -385 635 -400 c 0,4,5
 351 -412 351 -412 214 -266 c 1,6,7
 88 -134 88 -134 91 91 c 1,8,9
 95 312 95 312 179 479 c 1,10,-1
 333 441 l 1,11,12
 238 252 238 252 243 94 c 0,13,14
 248 -79 248 -79 343 -162 c 0,15,16
 455 -260 455 -260 655 -249 c 0,17,18
 810 -241 810 -241 922 -162 c 0,19,20
 1058 -66 1058 -66 1057 207 c 1,21,-1
 1055 446 l 1,22,-1
 1024 1405 l 1,23,-1
 1181 1470 l 1,24,-1
 1181 446 l 2,25,26
 1181 253 1181 253 1175 179 c 1,0,1
EndSplineSet
Substitution2: "'init' Initial Forms in Arabic lookup 5 subtable" uniFEDF
Substitution2: "'medi' Medial Forms in Arabic lookup 4 subtable" uniFEE0
Substitution2: "'fina' Terminal Forms in Arabic lookup 3 subtable" uniFEDE
EndChar

StartChar: uni0645
Encoding: 1605 1605 55
Width: 1113
GlyphClass: 2
Flags: W
AnchorPoint: "Anchor-5" 568 1006 basechar 0
AnchorPoint: "Anchor-3" 155 -729 basechar 0
LayerCount: 2
Fore
SplineSet
525 309 m 0,0,1
 645 303 645 303 654 303 c 0,2,3
 779 303 779 303 825 316 c 0,4,5
 854 324 854 324 876 371 c 0,6,7
 935 499 935 499 661 618 c 0,8,9
 553 665 553 665 488 587 c 1,10,-1
 488 586 l 1,11,12
 432 507 432 507 448 325 c 1,13,-1
 448 323 l 1,14,-1
 449 322 l 2,15,16
 458 312 458 312 525 309 c 0,0,1
400 154 m 0,17,18
 270 154 270 154 231 79 c 1,19,20
 198 13 198 13 207 -121 c 2,21,-1
 239 -573 l 1,22,-1
 90 -658 l 1,23,-1
 90 -75 l 2,24,25
 90 112 90 112 165 207 c 0,26,27
 215 270 215 270 294 284 c 1,28,-1
 298 285 l 1,29,-1
 298 289 l 1,30,31
 283 587 283 587 401 698 c 0,32,33
 546 836 546 836 731 748 c 0,34,35
 1073 585 1073 585 1021 385 c 0,36,37
 964 165 964 165 914 168 c 1,38,39
 851 143 851 143 681 148 c 0,40,41
 502 154 502 154 400 154 c 0,17,18
EndSplineSet
Substitution2: "'init' Initial Forms in Arabic lookup 5 subtable" uniFEE3
Substitution2: "'medi' Medial Forms in Arabic lookup 4 subtable" uniFEE4
Substitution2: "'fina' Terminal Forms in Arabic lookup 3 subtable" uniFEE2
EndChar

StartChar: uni0647
Encoding: 1607 1607 57
Width: 925
GlyphClass: 2
Flags: W
AnchorPoint: "Anchor-5" 419 1097 basechar 0
AnchorPoint: "Anchor-3" 332 -181 basechar 0
LayerCount: 2
Fore
SplineSet
268 365 m 1,0,1
 241 290 241 290 266 242 c 0,2,3
 293 192 293 192 369 161 c 0,4,5
 449 129 449 129 552 152 c 0,6,7
 636 170 636 170 657 244 c 0,8,9
 674 302 674 302 640 397 c 1,10,-1
 640 397 l 1,11,12
 573 532 573 532 456 628 c 1,13,14
 306 477 306 477 268 365 c 1,0,1
163 503 m 0,15,16
 235 620 235 620 340 726 c 1,17,-1
 302 758 l 1,18,-1
 404 867 l 1,19,20
 681 667 681 667 772 473 c 0,21,22
 910 181 910 181 693 49 c 0,23,24
 615 2 615 2 468 4 c 0,25,26
 330 5 330 5 256 41 c 1,27,28
 120 105 120 105 97 226 c 0,29,30
 73 356 73 356 163 503 c 0,15,16
EndSplineSet
Substitution2: "'init' Initial Forms in Arabic lookup 5 subtable" uniFEEB
Substitution2: "'medi' Medial Forms in Arabic lookup 4 subtable" uniFEEC
Substitution2: "'fina' Terminal Forms in Arabic lookup 3 subtable" uniFEEA
EndChar

StartChar: uni0648
Encoding: 1608 1608 58
Width: 842
GlyphClass: 2
Flags: W
AnchorPoint: "Anchor-5" 358 1032 basechar 0
AnchorPoint: "Anchor-3" 523 -589 basechar 0
LayerCount: 2
Fore
SplineSet
413 517 m 0,0,1
 284 513 284 513 240 342 c 0,2,3
 195 168 195 168 348 142 c 0,4,5
 497 116 497 116 604 198 c 1,6,7
 612 223 612 223 593 324 c 0,8,9
 556 521 556 521 413 517 c 0,0,1
729 -26 m 0,10,11
 704 -171 704 -171 620 -280 c 0,12,13
 446 -504 446 -504 94 -507 c 1,14,-1
 26 -381 l 1,15,16
 552 -350 552 -350 589 47 c 1,17,18
 532 -6 532 -6 388 -8 c 0,19,20
 215 -11 215 -11 145 86 c 1,21,22
 83 174 83 174 98 289 c 0,23,24
 123 481 123 481 212 574 c 1,25,26
 334 699 334 699 486 666 c 0,27,28
 603 641 603 641 665 526 c 0,29,30
 729 406 729 406 743 256 c 0,31,32
 755 127 755 127 729 -26 c 0,10,11
EndSplineSet
Substitution2: "'fina' Terminal Forms in Arabic lookup 3 subtable" uniFEEE
EndChar

StartChar: uni0649
Encoding: 1609 1609 59
Width: 1422
GlyphClass: 2
Flags: W
AnchorPoint: "Anchor-5" 351 863 basechar 0
AnchorPoint: "Anchor-3" 295 -568 basechar 0
LayerCount: 2
Fore
SplineSet
1008 145 m 1,0,-1
 1063 146 l 1,1,2
 1170 146 1170 146 1227 122 c 1,3,4
 1325 83 1325 83 1325 -25 c 0,5,6
 1325 -169 1325 -169 1187 -297 c 0,7,8
 1075 -401 1075 -401 840 -437 c 0,9,10
 768 -448 768 -448 719 -448 c 0,11,12
 508 -448 508 -448 364 -386 c 0,13,14
 92 -270 92 -270 92 42 c 0,15,16
 92 218 92 218 170 407 c 0,17,18
 214 512 214 512 279 604 c 1,19,-1
 413 541 l 1,20,21
 326 402 326 402 291 271 c 0,22,23
 257 140 257 140 257 59 c 0,24,25
 257 -21 257 -21 292 -92 c 0,26,27
 395 -297 395 -297 723 -296 c 0,28,29
 890 -296 890 -296 1005 -246 c 0,30,31
 1192 -165 1192 -165 1199 -72 c 0,32,33
 1202 -40 1202 -40 1182 -19 c 0,34,35
 1162 1 1162 1 1119 1 c 1,36,-1
 1021 -4 l 1,37,38
 784 -4 784 -4 752 147 c 0,39,40
 748 165 748 165 748 197 c 0,41,42
 748 228 748 228 770 293 c 0,43,44
 817 433 817 433 955 550 c 0,45,46
 1103 676 1103 676 1239 678 c 0,47,48
 1284 678 1284 678 1320 669 c 1,49,-1
 1265 483 l 1,50,51
 1265 483 1265 483 1263 483 c 0,52,53
 1080 483 1080 483 945 322 c 0,54,55
 894 261 894 261 894 217 c 0,56,57
 894 145 894 145 1008 145 c 1,0,-1
EndSplineSet
Substitution2: "'init' Initial Forms in Arabic lookup 5 subtable" uniFBE8
Substitution2: "'medi' Medial Forms in Arabic lookup 4 subtable" uniFBE9
Substitution2: "'fina' Terminal Forms in Arabic lookup 3 subtable" uniFEF0
EndChar

StartChar: uni064B
Encoding: 1611 1611 61
Width: 0
GlyphClass: 4
Flags: W
AnchorPoint: "Anchor-5" 547 1041 mark 0
AnchorPoint: "Anchor-4" 547 1041 mark 0
AnchorPoint: "Anchor-1" 547 1576 basemark 0
AnchorPoint: "Anchor-1" 547 1041 mark 0
LayerCount: 2
Fore
SplineSet
269 977 m 1,0,-1
 269 1104 l 1,1,-1
 827 1333 l 1,2,-1
 827 1206 l 1,3,-1
 269 977 l 1,0,-1
269 1234 m 1,4,-1
 269 1361 l 1,5,-1
 827 1590 l 1,6,-1
 827 1463 l 1,7,-1
 269 1234 l 1,4,-1
EndSplineSet
EndChar

StartChar: uni064C
Encoding: 1612 1612 62
Width: 0
GlyphClass: 4
Flags: W
AnchorPoint: "Anchor-5" 554 1155 mark 0
AnchorPoint: "Anchor-4" 554 1155 mark 0
AnchorPoint: "Anchor-1" 546 1810 basemark 0
AnchorPoint: "Anchor-1" 554 1155 mark 0
LayerCount: 2
Fore
SplineSet
567 1299 m 0,0,1
 608 1339 608 1339 632 1386 c 1,2,-1
 639 1401 l 1,3,-1
 623 1404 l 2,4,5
 590 1411 590 1411 567 1424 c 0,6,7
 458 1482 458 1482 458 1574 c 0,8,9
 458 1661 458 1661 526 1713 c 0,10,11
 553 1733 553 1733 616 1733 c 0,12,13
 689 1733 689 1733 728 1695 c 0,14,15
 783 1641 783 1641 783 1562 c 0,16,17
 783 1522 783 1522 770 1483 c 2,18,-1
 765 1467 l 1,19,-1
 782 1466 l 2,20,21
 802 1465 802 1465 818 1465 c 1,22,23
 831 1464 831 1464 846 1464 c 1,24,-1
 846 1372 l 1,25,26
 806 1373 806 1373 788 1374 c 2,27,-1
 723 1381 l 1,28,-1
 720 1372 l 1,29,30
 693 1309 693 1309 614 1227 c 1,31,32
 527 1139 527 1139 432 1139 c 0,33,34
 319 1139 319 1139 262 1295 c 0,35,36
 248 1335 248 1335 247 1443 c 1,37,-1
 317 1443 l 1,38,39
 318 1347 318 1347 331 1319 c 0,40,41
 372 1231 372 1231 432 1231 c 0,42,43
 497 1231 497 1231 567 1299 c 0,0,1
669 1483 m 1,44,-1
 680 1508 l 2,45,46
 691 1533 691 1533 691 1562 c 0,47,48
 691 1604 691 1604 668 1623 c 0,49,50
 646 1641 646 1641 620 1641 c 0,51,52
 592 1641 592 1641 576 1629 c 0,53,54
 552 1610 552 1610 552 1574 c 0,55,56
 552 1526 552 1526 608 1504 c 0,57,58
 630 1495 630 1495 658 1486 c 1,59,-1
 669 1483 l 1,44,-1
EndSplineSet
EndChar

StartChar: uni064D
Encoding: 1613 1613 63
Width: 0
GlyphClass: 4
Flags: W
AnchorPoint: "Anchor-3" 531 75 mark 0
AnchorPoint: "Anchor-2" 531 75 mark 0
AnchorPoint: "Anchor-0" 547 -439 basemark 0
AnchorPoint: "Anchor-0" 531 75 mark 0
LayerCount: 2
Fore
SplineSet
271 -512 m 1,0,-1
 271 -385 l 1,1,-1
 829 -157 l 1,2,-1
 829 -284 l 1,3,-1
 271 -512 l 1,0,-1
271 -255 m 1,4,-1
 271 -128 l 1,5,-1
 829 100 l 1,6,-1
 829 -27 l 1,7,-1
 271 -255 l 1,4,-1
EndSplineSet
EndChar

StartChar: uni064E
Encoding: 1614 1614 64
Width: 0
GlyphClass: 4
Flags: W
AnchorPoint: "Anchor-5" 517 1279 mark 0
AnchorPoint: "Anchor-4" 517 1279 mark 0
AnchorPoint: "Anchor-1" 517 1600 basemark 0
AnchorPoint: "Anchor-1" 517 1279 mark 0
LayerCount: 2
Fore
SplineSet
237 1237 m 1,0,-1
 237 1364 l 1,1,-1
 795 1593 l 1,2,-1
 795 1466 l 1,3,-1
 237 1237 l 1,0,-1
EndSplineSet
EndChar

StartChar: uni064F
Encoding: 1615 1615 65
Width: 0
GlyphClass: 4
Flags: W
AnchorPoint: "Anchor-5" 531 1205 mark 0
AnchorPoint: "Anchor-4" 531 1205 mark 0
AnchorPoint: "Anchor-1" 547 1825 basemark 0
AnchorPoint: "Anchor-1" 531 1205 mark 0
LayerCount: 2
Fore
SplineSet
595 1427 m 2,0,1
 587 1429 587 1429 568 1438 c 0,2,3
 459 1495 459 1495 459 1589 c 0,4,5
 459 1675 459 1675 528 1727 c 0,6,7
 554 1747 554 1747 617 1747 c 0,8,9
 690 1747 690 1747 729 1709 c 0,10,11
 784 1655 784 1655 784 1576 c 0,12,13
 784 1543 784 1543 770 1497 c 2,14,-1
 765 1481 l 1,15,-1
 781 1480 l 2,16,17
 800 1479 800 1479 819 1479 c 1,18,19
 832 1478 832 1478 847 1478 c 1,20,-1
 847 1387 l 1,21,22
 817 1387 817 1387 789 1389 c 0,23,24
 758 1391 758 1391 728 1394 c 2,25,-1
 720 1395 l 1,26,-1
 716 1388 l 1,27,28
 671 1325 671 1325 600 1282 c 0,29,30
 398 1158 398 1158 248 1152 c 1,31,-1
 248 1244 l 1,32,33
 409 1249 409 1249 555 1363 c 0,34,35
 580 1383 580 1383 601 1405 c 2,36,-1
 617 1422 l 1,37,-1
 595 1427 l 2,0,1
671 1497 m 1,38,-1
 682 1522 l 2,39,40
 692 1547 692 1547 692 1576 c 0,41,42
 692 1618 692 1618 670 1637 c 0,43,44
 648 1655 648 1655 622 1655 c 0,45,46
 593 1655 593 1655 577 1643 c 0,47,48
 553 1624 553 1624 553 1589 c 0,49,50
 553 1540 553 1540 609 1518 c 0,51,52
 631 1509 631 1509 660 1500 c 1,53,-1
 671 1497 l 1,38,-1
EndSplineSet
EndChar

StartChar: uni0650
Encoding: 1616 1616 66
Width: 0
GlyphClass: 4
Flags: W
AnchorPoint: "Anchor-3" 467 -12 mark 0
AnchorPoint: "Anchor-2" 467 -12 mark 0
AnchorPoint: "Anchor-0" 556 -311 basemark 0
AnchorPoint: "Anchor-0" 467 -12 mark 0
LayerCount: 2
Fore
SplineSet
268 -357 m 1,0,-1
 268 -230 l 1,1,-1
 826 -1 l 1,2,-1
 826 -129 l 1,3,-1
 268 -357 l 1,0,-1
EndSplineSet
EndChar

StartChar: uni0651
Encoding: 1617 1617 67
Width: 0
GlyphClass: 4
Flags: W
AnchorPoint: "Anchor-5" 547 1316 mark 0
AnchorPoint: "Anchor-4" 547 1316 mark 0
AnchorPoint: "Anchor-1" 535 1818 basemark 0
AnchorPoint: "Anchor-1" 547 1316 mark 0
LayerCount: 2
Fore
SplineSet
399 1306 m 0,0,1
 306 1303 306 1303 261 1356 c 0,2,3
 227 1396 227 1396 227 1486 c 0,4,5
 227 1527 227 1527 242 1627 c 1,6,-1
 321 1627 l 1,7,8
 308 1503 308 1503 308 1479 c 0,9,10
 308 1395 308 1395 399 1393 c 0,11,12
 497 1391 497 1391 506 1519 c 0,13,14
 508 1545 508 1545 508 1681 c 1,15,-1
 589 1681 l 1,16,17
 589 1624 589 1624 589 1598 c 1,18,19
 595 1449 595 1449 701 1452 c 1,20,21
 790 1453 790 1453 784 1604 c 0,22,23
 779 1711 779 1711 775 1770 c 1,24,-1
 858 1770 l 1,25,26
 869 1695 869 1695 869 1581 c 0,27,28
 869 1504 869 1504 844 1450 c 0,29,30
 805 1365 805 1365 714 1360 c 0,31,32
 611 1355 611 1355 555 1431 c 1,33,34
 519 1310 519 1310 399 1306 c 0,0,1
EndSplineSet
EndChar

StartChar: uni0652
Encoding: 1618 1618 68
Width: 0
GlyphClass: 4
Flags: W
AnchorPoint: "Anchor-5" 565 1128 mark 0
AnchorPoint: "Anchor-4" 565 1128 mark 0
AnchorPoint: "Anchor-1" 551 1702 basemark 0
AnchorPoint: "Anchor-1" 565 1128 mark 0
LayerCount: 2
Fore
SplineSet
675 1384 m 0,0,1
 675 1428 675 1428 643.5 1459 c 128,-1,2
 612 1490 612 1490 567 1490 c 0,3,4
 521 1490 521 1490 490.5 1459.5 c 128,-1,5
 460 1429 460 1429 460 1384 c 0,6,7
 460 1338 460 1338 490.5 1307 c 128,-1,8
 521 1276 521 1276 567 1276 c 0,9,10
 612 1276 612 1276 643.5 1307 c 128,-1,11
 675 1338 675 1338 675 1384 c 0,0,1
750 1384 m 128,-1,13
 750 1307 750 1307 697 1253.5 c 128,-1,14
 644 1200 644 1200 567.5 1200 c 128,-1,15
 491 1200 491 1200 437.5 1253.5 c 128,-1,16
 384 1307 384 1307 384 1384 c 128,-1,17
 384 1461 384 1461 437.5 1514 c 128,-1,18
 491 1567 491 1567 567.5 1567 c 128,-1,19
 644 1567 644 1567 697 1514 c 128,-1,12
 750 1461 750 1461 750 1384 c 128,-1,13
EndSplineSet
EndChar

StartChar: uni0653
Encoding: 1619 1619 69
Width: 0
GlyphClass: 4
Flags: W
AnchorPoint: "Anchor-5" 406 1276 mark 0
AnchorPoint: "Anchor-4" 406 1276 mark 0
AnchorPoint: "Anchor-1" 442 1600 basemark 0
AnchorPoint: "Anchor-1" 406 1276 mark 0
LayerCount: 2
Fore
SplineSet
150 1214 m 1,0,-1
 48 1271 l 1,1,2
 98 1362 98 1362 172 1406 c 0,3,4
 246 1451 246 1451 345 1451 c 2,5,-1
 476 1451 l 2,6,7
 609 1451 609 1451 653 1480 c 1,8,-1
 659 1376 l 1,9,10
 621 1332 621 1332 480 1332 c 2,11,-1
 344 1332 l 2,12,13
 277 1332 277 1332 228 1302 c 0,14,15
 178 1272 178 1272 150 1214 c 1,0,-1
EndSplineSet
EndChar

StartChar: uni0657
Encoding: 1623 1623 72
Width: 0
GlyphClass: 4
Flags: W
AnchorPoint: "Anchor-5" 547 1279 mark 0
AnchorPoint: "Anchor-4" 547 1279 mark 0
AnchorPoint: "Anchor-1" 547 1975 basemark 0
AnchorPoint: "Anchor-1" 547 1279 mark 0
LayerCount: 2
Fore
SplineSet
501 1676 m 2,0,1
 509 1674 509 1674 528 1664 c 0,2,3
 636 1608 636 1608 636 1514 c 0,4,5
 636 1427 636 1427 568 1376 c 0,6,7
 541 1356 541 1356 478 1356 c 0,8,9
 405 1356 405 1356 366 1394 c 0,10,11
 312 1448 312 1448 312 1527 c 0,12,13
 312 1559 312 1559 326 1605 c 2,14,-1
 331 1621 l 1,15,-1
 314 1622 l 2,16,17
 296 1623 296 1623 276 1624 c 0,18,19
 263 1624 263 1624 248 1624 c 1,20,-1
 248 1716 l 1,21,22
 279 1716 279 1716 306 1714 c 0,23,24
 338 1712 338 1712 368 1708 c 1,25,-1
 375 1708 l 1,26,-1
 380 1714 l 1,27,28
 424 1777 424 1777 496 1821 c 0,29,30
 697 1945 697 1945 847 1950 c 1,31,-1
 847 1858 l 1,32,33
 687 1854 687 1854 541 1739 c 0,34,35
 516 1719 516 1719 495 1697 c 2,36,-1
 479 1681 l 1,37,-1
 501 1676 l 2,0,1
425 1606 m 1,38,-1
 414 1580 l 2,39,40
 403 1555 403 1555 403 1527 c 0,41,42
 403 1484 403 1484 426 1465 c 0,43,44
 448 1447 448 1447 474 1447 c 0,45,46
 502 1447 502 1447 518 1460 c 1,47,48
 543 1478 543 1478 543 1514 c 0,49,50
 543 1562 543 1562 486 1585 c 0,51,52
 464 1594 464 1594 436 1602 c 1,53,-1
 425 1606 l 1,38,-1
EndSplineSet
EndChar

StartChar: uni065A
Encoding: 1626 1626 73
Width: 1095
GlyphClass: 4
Flags: W
AnchorPoint: "Anchor-5" 547 1279 mark 0
AnchorPoint: "Anchor-4" 547 1279 mark 0
AnchorPoint: "Anchor-1" 545 1761 basemark 0
AnchorPoint: "Anchor-1" 547 1279 mark 0
LayerCount: 2
Fore
SplineSet
476 1359 m 1,0,-1
 283 1682 l 1,1,-1
 402 1682 l 1,2,-1
 548 1463 l 1,3,-1
 694 1682 l 1,4,-1
 813 1682 l 1,5,-1
 620 1359 l 1,6,-1
 476 1359 l 1,0,-1
EndSplineSet
EndChar

StartChar: afii57392
Encoding: 1632 1632 74
Width: 1177
GlyphClass: 2
Flags: W
LayerCount: 2
Fore
SplineSet
488 590.5 m 128,-1,1
 488 549 488 549 518 519 c 128,-1,2
 548 489 548 489 589.5 489 c 128,-1,3
 631 489 631 489 661 519 c 128,-1,4
 691 549 691 549 691 590.5 c 128,-1,5
 691 632 691 632 661 662 c 128,-1,6
 631 692 631 692 589.5 692 c 128,-1,7
 548 692 548 692 518 662 c 128,-1,0
 488 632 488 632 488 590.5 c 128,-1,1
344 593.5 m 128,-1,9
 344 695 344 695 415.5 767.5 c 128,-1,10
 487 840 487 840 588.5 840 c 128,-1,11
 690 840 690 840 761.5 767.5 c 128,-1,12
 833 695 833 695 833 593.5 c 128,-1,13
 833 492 833 492 761.5 419.5 c 128,-1,14
 690 347 690 347 588.5 347 c 128,-1,15
 487 347 487 347 415.5 419.5 c 128,-1,8
 344 492 344 492 344 593.5 c 128,-1,9
EndSplineSet
EndChar

StartChar: afii57393
Encoding: 1633 1633 75
Width: 1177
GlyphClass: 2
Flags: W
LayerCount: 2
Fore
SplineSet
731 8 m 1,0,-1
 574 8 l 1,1,2
 574 444 574 444 531 710 c 1,3,4
 484 1020 484 1020 356 1296 c 1,5,-1
 495 1364 l 1,6,7
 603 1185 603 1185 679 838 c 0,8,9
 729 608 729 608 731 8 c 1,0,-1
EndSplineSet
EndChar

StartChar: afii57394
Encoding: 1634 1634 76
Width: 1177
GlyphClass: 2
Flags: W
LayerCount: 2
Fore
SplineSet
289 1364 m 1,0,1
 331 1261 331 1261 363 1199 c 0,2,3
 438 1053 438 1053 579 1038 c 0,4,5
 793 1014 793 1014 855 1157 c 0,6,7
 883 1224 883 1224 903 1363 c 1,8,-1
 1051 1327 l 1,9,10
 1050 1272 1050 1272 1034 1193 c 0,11,12
 969 886 969 886 675 871 c 0,13,14
 545 864 545 864 448 896 c 1,15,16
 484 790 484 790 507 574 c 0,17,18
 515 501 515 501 521 8 c 1,19,-1
 365 8 l 1,20,21
 364 446 364 446 325 684 c 0,22,23
 272 1005 272 1005 150 1266 c 1,24,-1
 289 1364 l 1,0,1
EndSplineSet
EndChar

StartChar: afii57395
Encoding: 1635 1635 77
Width: 1177
GlyphClass: 2
Flags: W
LayerCount: 2
Fore
SplineSet
244 1364 m 1,0,1
 310 1208 310 1208 314 1202 c 0,2,3
 396 1049 396 1049 483 1041 c 0,4,5
 568 1033 568 1033 606 1083 c 0,6,7
 650 1141 650 1141 650 1319 c 1,8,-1
 766 1318 l 1,9,10
 769 1151 769 1151 782 1117 c 1,11,12
 814 1041 814 1041 883 1041 c 1,13,14
 1014 1043 1014 1043 991 1356 c 1,15,-1
 1119 1335 l 1,16,17
 1148 883 1148 883 884 889 c 0,18,19
 773 892 773 892 713 984 c 1,20,21
 661 895 661 895 552 888 c 0,22,23
 480 883 480 883 400 911 c 1,24,25
 434 805 434 805 470 477 c 0,26,27
 488 315 488 315 478 9 c 1,28,-1
 320 9 l 1,29,30
 319 446 319 446 280 684 c 0,31,32
 227 1005 227 1005 105 1266 c 1,33,-1
 244 1364 l 1,0,1
EndSplineSet
EndChar

StartChar: afii57396
Encoding: 1636 1636 78
Width: 1177
GlyphClass: 2
Flags: W
LayerCount: 2
Fore
SplineSet
748 1369 m 1,0,-1
 747 1236 l 1,1,2
 623 1248 623 1248 539 1210 c 0,3,4
 429 1160 429 1160 438 1047 c 0,5,6
 447 930 447 930 566 885 c 0,7,8
 605 871 605 871 743 857 c 1,9,-1
 743 713 l 1,10,11
 588 684 588 684 498 625 c 1,12,13
 379 545 379 545 362 401 c 0,14,15
 357 359 357 359 362 323 c 0,16,17
 391 110 391 110 753 160 c 0,18,19
 835 171 835 171 959 230 c 1,20,-1
 959 61 l 1,21,22
 835 12 835 12 672 1 c 0,23,24
 291 -25 291 -25 224 229 c 0,25,26
 160 472 160 472 294 636 c 0,27,28
 380 740 380 740 525 784 c 1,29,30
 314 833 314 833 290 1016 c 0,31,32
 260 1240 260 1240 462 1332 c 0,33,34
 563 1379 563 1379 748 1369 c 1,0,-1
EndSplineSet
EndChar

StartChar: afii57397
Encoding: 1637 1637 79
Width: 1177
GlyphClass: 2
Flags: W
LayerCount: 2
Fore
SplineSet
347 780 m 0,0,1
 269 645 269 645 262 502 c 0,2,3
 254 329 254 329 350 250 c 0,4,5
 438 177 438 177 613 176 c 0,6,7
 808 175 808 175 875 290 c 0,8,9
 931 388 931 388 919 533 c 0,10,11
 906 701 906 701 780 856 c 0,12,13
 679 980 679 980 566 1041 c 1,14,15
 434 932 434 932 347 780 c 0,0,1
374 1174 m 1,16,-1
 479 1312 l 1,17,18
 587 1255 587 1255 740 1131 c 1,19,20
 901 998 901 998 978 873 c 0,21,22
 1078 712 1078 712 1087 518 c 0,23,24
 1100 264 1100 264 996 154 c 0,25,26
 866 17 866 17 594 18 c 1,27,28
 318 18 318 18 193 154 c 0,29,30
 63 294 63 294 90 517 c 1,31,32
 113 696 113 696 203 848 c 1,33,34
 305 1024 305 1024 437 1131 c 1,35,-1
 374 1174 l 1,16,-1
EndSplineSet
EndChar

StartChar: afii57398
Encoding: 1638 1638 80
Width: 1177
GlyphClass: 2
Flags: W
LayerCount: 2
Fore
SplineSet
887 1359 m 1,0,1
 889 1054 889 1054 927 689 c 0,2,3
 957 400 957 400 1057 8 c 1,4,-1
 885 8 l 1,5,6
 797 348 797 348 765 693 c 0,7,8
 735 1013 735 1013 733 1154 c 1,9,-1
 732 1177 l 1,10,-1
 710 1171 l 1,11,12
 609 1141 609 1141 460 1141 c 0,13,14
 279 1141 279 1141 109 1190 c 1,15,-1
 109 1358 l 1,16,17
 292 1310 292 1310 460 1310 c 0,18,19
 675 1310 675 1310 887 1359 c 1,0,1
EndSplineSet
EndChar

StartChar: afii57399
Encoding: 1639 1639 81
Width: 1177
GlyphClass: 2
Flags: W
LayerCount: 2
Fore
SplineSet
509 8 m 1,0,1
 494 203 494 203 386 595 c 0,2,3
 278 990 278 990 107 1284 c 1,4,-1
 263 1364 l 1,5,6
 423 1038 423 1038 518 708 c 0,7,8
 569 529 569 529 571 518 c 2,9,-1
 588 421 l 1,10,-1
 606 518 l 2,11,12
 608 529 608 529 659 708 c 0,13,14
 754 1038 754 1038 914 1364 c 1,15,-1
 1070 1284 l 1,16,17
 901 996 901 996 790 594 c 0,18,19
 702 272 702 272 669 8 c 1,20,-1
 509 8 l 1,0,1
EndSplineSet
EndChar

StartChar: afii57400
Encoding: 1640 1640 82
Width: 1177
GlyphClass: 2
Flags: W
LayerCount: 2
Fore
SplineSet
509 1364 m 1,0,-1
 669 1364 l 1,1,2
 705 1078 705 1078 790 778 c 0,3,4
 916 336 916 336 1083 72 c 1,5,-1
 914 8 l 1,6,7
 754 334 754 334 659 664 c 0,8,9
 608 843 608 843 588 951 c 1,10,11
 569 843 569 843 518 664 c 0,12,13
 423 334 423 334 263 8 c 1,14,-1
 94 72 l 1,15,16
 220 284 220 284 386 777 c 0,17,18
 486 1071 486 1071 509 1364 c 1,0,-1
EndSplineSet
EndChar

StartChar: afii57401
Encoding: 1641 1641 83
Width: 1177
GlyphClass: 2
Flags: W
LayerCount: 2
Fore
SplineSet
566 667 m 0,0,1
 317 683 317 683 212 800 c 1,2,3
 125 895 125 895 125 1009 c 0,4,5
 125 1160 125 1160 219 1255 c 0,6,7
 349 1385 349 1385 500 1384 c 1,8,9
 681 1384 681 1384 764 1304 c 0,10,11
 883 1188 883 1188 897 1002 c 0,12,13
 908 857 908 857 927 696 c 1,14,15
 967 377 967 377 1057 8 c 1,16,-1
 885 8 l 1,17,18
 796 438 796 438 768 668 c 1,19,20
 670 661 670 661 566 667 c 0,0,1
745 826 m 1,21,-1
 745 923 l 2,22,23
 745 1044 745 1044 697 1116 c 1,24,25
 620 1225 620 1225 505 1225 c 0,26,27
 413 1225 413 1225 347 1161 c 0,28,29
 286 1102 286 1102 282 1014 c 0,30,31
 278 938 278 938 353 884 c 0,32,33
 406 845 406 845 466 831 c 0,34,35
 570 807 570 807 745 826 c 1,21,-1
EndSplineSet
EndChar

StartChar: afii57381
Encoding: 1642 1642 84
Width: 1177
GlyphClass: 2
Flags: W
LayerCount: 2
Fore
SplineSet
459 1287 m 2,0,-1
 459 1158 l 2,1,2
 459 1121 459 1121 429 1121 c 2,3,-1
 302 1121 l 2,4,5
 268 1121 268 1121 268 1159 c 2,6,-1
 268 1287 l 2,7,8
 268 1319 268 1319 306 1319 c 2,9,-1
 421 1319 l 2,10,11
 459 1319 459 1319 459 1287 c 2,0,-1
911 234 m 2,12,-1
 911 105 l 2,13,14
 911 68 911 68 881 68 c 2,15,-1
 754 68 l 2,16,17
 720 68 720 68 720 106 c 2,18,-1
 720 234 l 2,19,20
 720 266 720 266 758 266 c 2,21,-1
 873 266 l 2,22,23
 911 266 911 266 911 234 c 2,12,-1
871 1374 m 1,24,-1
 983 1316 l 1,25,-1
 301 0 l 1,26,-1
 190 61 l 1,27,-1
 871 1374 l 1,24,-1
EndSplineSet
EndChar

StartChar: uni066B
Encoding: 1643 1643 85
Width: 711
GlyphClass: 2
Flags: W
LayerCount: 2
Fore
SplineSet
406 487 m 1,0,-1
 526 431 l 1,1,2
 526 431 526 431 159 -230 c 1,3,-1
 43 -171 l 1,4,5
 43 -171 43 -171 406 487 c 1,0,-1
EndSplineSet
EndChar

StartChar: uni066C
Encoding: 1644 1644 86
Width: 696
GlyphClass: 2
Flags: W
LayerCount: 2
Fore
SplineSet
291 1580 m 1,0,-1
 491 1580 l 1,1,-1
 491 1434 l 1,2,-1
 321 1102 l 1,3,-1
 207 1102 l 1,4,-1
 291 1429 l 1,5,-1
 291 1580 l 1,0,-1
EndSplineSet
EndChar

StartChar: uni066E
Encoding: 1646 1646 87
Width: 1755
GlyphClass: 2
Flags: W
AnchorPoint: "Anchor-5" 763 1051 basechar 0
AnchorPoint: "Anchor-3" 533 -209 basechar 0
LayerCount: 2
Fore
SplineSet
869 1 m 0,0,1
 538 0 538 0 379 66 c 0,2,3
 121 174 121 174 96 450 c 0,4,5
 86 559 86 559 128 703 c 1,6,-1
 256 669 l 1,7,8
 235 532 235 532 238 475 c 0,9,10
 250 231 250 231 562 183 c 0,11,12
 638 172 638 172 814 171 c 1,13,14
 1038 172 1038 172 1066 175 c 0,15,16
 1475 214 1475 214 1488 313 c 0,17,18
 1496 379 1496 379 1490 445 c 0,19,20
 1471 630 1471 630 1447 705 c 1,21,-1
 1606 786 l 1,22,23
 1632 677 1632 677 1645 546 c 0,24,25
 1668 307 1668 307 1618 198 c 0,26,27
 1528 3 1528 3 869 1 c 0,0,1
EndSplineSet
Substitution2: "'init' Initial Forms in Arabic lookup 5 subtable" uni066E.init
Substitution2: "'medi' Medial Forms in Arabic lookup 4 subtable" uni066E.medi
Substitution2: "'fina' Terminal Forms in Arabic lookup 3 subtable" uni066E.fina
EndChar

StartChar: uni066F
Encoding: 1647 1647 88
Width: 1494
GlyphClass: 2
Flags: W
AnchorPoint: "Anchor-5" 315 1045 basechar 0
AnchorPoint: "Anchor-3" 439 -603 basechar 0
LayerCount: 2
Fore
SplineSet
1106 687 m 0,0,1
 981 684 981 684 930 534 c 0,2,3
 858 326 858 326 1083 311 c 0,4,5
 1158 306 1158 306 1268 333 c 1,6,7
 1269 446 1269 446 1252 527 c 0,8,9
 1220 689 1220 689 1106 687 c 0,0,1
1410 174 m 0,10,11
 1389 -87 1389 -87 1232 -242 c 1,12,13
 1039 -420 1039 -420 687 -412 c 0,14,15
 392 -405 392 -405 244 -254 c 0,16,17
 90 -98 90 -98 94 169 c 0,18,19
 97 375 97 375 187 557 c 1,20,-1
 336 519 l 1,21,22
 251 295 251 295 252 158 c 0,23,24
 255 -263 255 -263 731 -258 c 0,25,26
 1027 -255 1027 -255 1164 -94 c 0,27,28
 1258 16 1258 16 1260 175 c 1,29,30
 1167 158 1167 158 1092 158 c 0,31,32
 921 157 921 157 842 246 c 0,33,34
 764 333 764 333 782 475 c 0,35,36
 803 649 803 649 908 751 c 0,37,38
 1007 846 1007 846 1121 839 c 0,39,40
 1277 830 1277 830 1347 688 c 0,41,42
 1402 577 1402 577 1409 430 c 0,43,44
 1417 263 1417 263 1410 174 c 0,10,11
EndSplineSet
Substitution2: "'init' Initial Forms in Arabic lookup 5 subtable" uni066F.init
Substitution2: "'medi' Medial Forms in Arabic lookup 4 subtable" uni066F.medi
Substitution2: "'fina' Terminal Forms in Arabic lookup 3 subtable" uni066F.fina
EndChar

StartChar: uni0670
Encoding: 1648 1648 89
Width: 0
GlyphClass: 4
Flags: W
AnchorPoint: "Anchor-5" 547 1279 mark 0
AnchorPoint: "Anchor-4" 547 1279 mark 0
AnchorPoint: "Anchor-1" 547 1884 basemark 0
AnchorPoint: "Anchor-1" 547 1279 mark 0
LayerCount: 2
Fore
SplineSet
526 1328 m 1,0,-1
 502 1782 l 1,1,-1
 594 1836 l 1,2,-1
 594 1328 l 1,3,-1
 526 1328 l 1,0,-1
EndSplineSet
EndChar

StartChar: uni0674
Encoding: 1652 1652 90
Width: 639
GlyphClass: 2
Flags: W
LayerCount: 2
Fore
SplineSet
144 1515 m 1,0,-1
 254 1541 l 1,1,2
 146 1590 146 1590 146 1693 c 0,3,4
 146 1779 146 1779 206 1832 c 0,5,6
 257 1876 257 1876 343 1877 c 0,7,8
 411 1877 411 1877 462 1847 c 1,9,-1
 462 1770 l 1,10,11
 397 1802 397 1802 332 1795 c 0,12,13
 228 1784 228 1784 220 1701 c 1,14,15
 213 1613 213 1613 330 1577 c 0,16,17
 366 1566 366 1566 485 1594 c 1,18,-1
 485 1511 l 1,19,-1
 144 1435 l 1,20,-1
 144 1515 l 1,0,-1
EndSplineSet
EndChar

StartChar: uni06A1
Encoding: 1697 1697 94
Width: 1744
GlyphClass: 2
Flags: W
AnchorPoint: "Anchor-5" 501 1225 basechar 0
AnchorPoint: "Anchor-3" 608 -152 basechar 0
LayerCount: 2
Fore
SplineSet
853 0 m 0,0,1
 526 3 526 3 374 66 c 0,2,3
 116 174 116 174 91 450 c 0,4,5
 81 559 81 559 123 703 c 1,6,-1
 251 669 l 1,7,8
 232 538 232 538 235 475 c 0,9,10
 245 229 245 229 557 183 c 0,11,12
 597 177 597 177 800 171 c 0,13,14
 1133 160 1133 160 1324 218 c 0,15,16
 1473 263 1473 263 1501 402 c 1,17,-1
 1505 419 l 1,18,19
 1451 369 1451 369 1308 366 c 0,20,21
 1146 363 1146 363 1080 457 c 1,22,23
 1019 540 1019 540 1034 666 c 0,24,25
 1054 833 1054 833 1142 926 c 0,26,27
 1254 1044 1254 1044 1400 1013 c 0,28,29
 1505 991 1505 991 1567 884 c 0,30,31
 1628 780 1628 780 1644 638 c 1,32,33
 1666 464 1666 464 1630 318 c 0,34,35
 1582 120 1582 120 1354 46 c 0,36,37
 1201 -3 1201 -3 853 0 c 0,0,1
1335 864 m 0,38,39
 1216 860 1216 860 1176 699 c 256,40,41
 1136 538 1136 538 1275 515 c 1,42,43
 1416 490 1416 490 1511 564 c 1,44,45
 1519 588 1519 588 1501 682 c 0,46,47
 1467 868 1467 868 1335 864 c 0,38,39
EndSplineSet
Substitution2: "'init' Initial Forms in Arabic lookup 5 subtable" uni06A1.init
Substitution2: "'medi' Medial Forms in Arabic lookup 4 subtable" uni06A1.medi
Substitution2: "'fina' Terminal Forms in Arabic lookup 3 subtable" uni06A1.fina
EndChar

StartChar: uni06A9
Encoding: 1705 1705 95
Width: 1752
GlyphClass: 2
Flags: W
AnchorPoint: "Anchor-5" 369 1202 basechar 0
AnchorPoint: "Anchor-3" 485 -235 basechar 0
LayerCount: 2
Fore
SplineSet
845 0 m 2,0,1
 537 0 537 0 378 66 c 0,2,3
 120 174 120 174 95 450 c 0,4,5
 85 559 85 559 127 703 c 1,6,-1
 255 669 l 1,7,8
 230 527 230 527 233 475 c 0,9,10
 247 231 247 231 561 183 c 0,11,12
 637 172 637 172 804 171 c 2,13,-1
 1057 169 l 1,14,-1
 1191 169 l 2,15,16
 1473 169 1473 169 1497 318 c 0,17,18
 1519 457 1519 457 1399 549 c 2,19,-1
 1038 823 l 2,20,21
 962 881 962 881 956 949 c 0,22,23
 946 1072 946 1072 1064 1134 c 2,24,-1
 1705 1470 l 1,25,-1
 1705 1304 l 1,26,-1
 1093 984 l 1,27,-1
 1101 977 l 1,28,29
 1353 785 1353 785 1518 649 c 0,30,31
 1677 519 1677 519 1652 296 c 0,32,33
 1635 150 1635 150 1514 70 c 0,34,35
 1408 0 1408 0 1233 0 c 2,36,-1
 1089 0 l 1,37,-1
 845 0 l 2,0,1
EndSplineSet
Substitution2: "'init' Initial Forms in Arabic lookup 5 subtable" uniFB90
Substitution2: "'medi' Medial Forms in Arabic lookup 4 subtable" uniFB91
Substitution2: "'fina' Terminal Forms in Arabic lookup 3 subtable" uniFB8F
EndChar

StartChar: afii57514
Encoding: 1722 1722 97
Width: 1364
GlyphClass: 2
Flags: W
AnchorPoint: "Anchor-5" 592 1052 basechar 0
AnchorPoint: "Anchor-3" 538 -489 basechar 0
LayerCount: 2
Fore
SplineSet
1284 325 m 0,0,1
 1282 -275 1282 -275 674 -282 c 0,2,3
 122 -288 122 -288 92 226 c 0,4,5
 87 305 87 305 108 416 c 1,6,7
 131 530 131 530 179 634 c 1,8,-1
 314 582 l 1,9,10
 226 365 226 365 242 213 c 1,11,12
 281 -135 281 -135 675 -133 c 0,13,14
 1108 -130 1108 -130 1127 269 c 0,15,16
 1135 449 1135 449 1016 617 c 1,17,-1
 1152 747 l 1,18,19
 1284 526 1284 526 1284 325 c 0,0,1
EndSplineSet
Substitution2: "'fina' Terminal Forms in Arabic lookup 3 subtable" uniFB9F
EndChar

StartChar: uni06F4
Encoding: 1780 1780 106
Width: 1177
GlyphClass: 2
Flags: W
LayerCount: 2
Fore
SplineSet
374 1113 m 2,0,-1
 390 1062 l 1,1,-1
 408 1113 l 2,2,3
 479 1315 479 1315 619 1356 c 0,4,5
 765 1399 765 1399 958 1358 c 1,6,-1
 958 1229 l 1,7,8
 918 1240 918 1240 834 1251 c 0,9,10
 670 1271 670 1271 586 1185 c 0,11,12
 476 1074 476 1074 545 961 c 0,13,14
 595 880 595 880 791 880 c 0,15,16
 845 880 845 880 1015 905 c 1,17,-1
 1018 769 l 1,18,19
 823 744 823 744 762 744 c 0,20,21
 592 744 592 744 490 812 c 2,22,-1
 442 844 l 1,23,24
 474 722 474 722 482 670 c 0,25,26
 524 427 524 427 521 8 c 1,27,-1
 365 8 l 1,28,29
 364 437 364 437 325 684 c 1,30,31
 278 974 278 974 146 1270 c 1,32,-1
 288 1364 l 1,33,34
 353 1177 353 1177 374 1113 c 2,0,-1
EndSplineSet
EndChar

StartChar: uni06F5
Encoding: 1781 1781 107
Width: 1177
GlyphClass: 2
Flags: W
LayerCount: 2
Fore
SplineSet
611 344 m 0,0,1
 684 190 684 190 811 184 c 1,2,3
 993 177 993 177 942 471 c 1,4,5
 866 792 866 792 570 1049 c 1,6,7
 344 783 344 783 266 521 c 1,8,9
 166 195 166 195 386 185 c 0,10,11
 505 180 505 180 584 344 c 0,12,13
 597 372 597 372 611 344 c 0,0,1
372 8 m 0,14,15
 97 8 97 8 75 279 c 0,16,17
 46 648 46 648 457 1147 c 1,18,19
 457 1147 457 1147 411 1187 c 1,20,21
 411 1187 411 1187 510 1324 c 1,22,23
 526 1315 526 1315 588 1258 c 0,24,25
 1151 744 1151 744 1100 283 c 0,26,27
 1068 0 1068 0 824 9 c 1,28,29
 652 13 652 13 601 154 c 2,30,-1
 596 168 l 1,31,-1
 592 155 l 1,32,33
 539 8 539 8 372 8 c 0,14,15
EndSplineSet
EndChar

StartChar: uni06F6
Encoding: 1782 1782 108
Width: 1177
GlyphClass: 2
Flags: W
LayerCount: 2
Fore
SplineSet
246 8 m 1,0,1
 321 276 321 276 426 457 c 0,2,3
 529 633 529 633 614 696 c 1,4,5
 365 727 365 727 337 966 c 0,6,7
 315 1150 315 1150 427 1272 c 0,8,9
 522 1376 522 1376 689 1375 c 0,10,11
 806 1375 806 1375 894 1347 c 1,12,-1
 894 1198 l 1,13,14
 672 1260 672 1260 570 1185 c 0,15,16
 489 1126 489 1126 489 997 c 0,17,18
 489 905 489 905 553 853 c 0,19,20
 627 792 627 792 785 817 c 1,21,22
 867 831 867 831 1007 888 c 1,23,-1
 1007 735 l 1,24,25
 760 655 760 655 601 438 c 0,26,27
 460 245 460 245 401 8 c 1,28,-1
 246 8 l 1,0,1
EndSplineSet
EndChar

StartChar: uniFB8F
Encoding: 64399 64399 127
Width: 2024
GlyphClass: 2
Flags: W
AnchorPoint: "Anchor-5" 450 1174 basechar 0
AnchorPoint: "Anchor-3" 529 -212 basechar 0
LayerCount: 2
Fore
SplineSet
810 0 m 2,0,1
 539 0 539 0 380 66 c 0,2,3
 121 174 121 174 96 450 c 0,4,5
 86 559 86 559 129 703 c 1,6,-1
 257 669 l 1,7,8
 236 532 236 532 239 475 c 0,9,10
 251 231 251 231 563 183 c 0,11,12
 639 172 639 172 802 169 c 1,13,-1
 1253 170 l 2,14,15
 1468 170 1468 170 1497 307 c 0,16,17
 1513 386 1513 386 1436 472 c 2,18,-1
 1175 761 l 2,19,20
 1084 862 1084 862 1081 932 c 0,21,22
 1077 1041 1077 1041 1196 1105 c 2,23,-1
 1871 1471 l 1,24,-1
 1871 1304 l 1,25,-1
 1212 947 l 1,26,-1
 1827 263 l 2,27,28
 1912 169 1912 169 2025 170 c 1,29,-1
 2044 170 l 1,30,-1
 2044 1 l 1,31,-1
 1994 1 l 2,32,33
 1823 1 1823 1 1626 262 c 1,34,35
 1602 0 1602 0 1173 0 c 2,36,-1
 810 0 l 2,0,1
EndSplineSet
EndChar

StartChar: uniFB9F
Encoding: 64415 64415 135
Width: 1371
GlyphClass: 2
Flags: W
AnchorPoint: "Anchor-5" 361 711 basechar 0
AnchorPoint: "Anchor-3" 266 -701 basechar 0
LayerCount: 2
Fore
SplineSet
1217 74 m 1,0,1
 1221 -171 1221 -171 1104 -309 c 1,2,3
 961 -480 961 -480 655 -488 c 0,4,5
 411 -495 411 -495 256 -372 c 0,6,7
 99 -247 99 -247 84 10 c 0,8,9
 80 85 80 85 100 191 c 0,10,11
 122 302 122 302 170 402 c 1,12,-1
 314 353 l 1,13,14
 194 61 194 61 271 -123 c 1,15,16
 370 -330 370 -330 650 -331 c 0,17,18
 1037 -332 1037 -332 1078 0 c 0,19,20
 1105 215 1105 215 973 384 c 1,21,-1
 1106 511 l 1,22,23
 1160 362 1160 362 1212 266 c 0,24,25
 1264 169 1264 169 1349 169 c 2,26,-1
 1392 169 l 1,27,-1
 1392 0 l 1,28,-1
 1350 0 l 2,29,30
 1264 0 1264 0 1217 74 c 1,0,1
EndSplineSet
EndChar

StartChar: uniFBE8
Encoding: 64488 64488 139
Width: 579
GlyphClass: 2
Flags: W
AnchorPoint: "Anchor-5" 273 1016 basechar 0
AnchorPoint: "Anchor-3" 305 -112 basechar 0
LayerCount: 2
Fore
SplineSet
411 75 m 0,0,1
 323 0 323 0 78 0 c 2,2,-1
 -10 0 l 1,3,-1
 -10 169 l 1,4,-1
 91 169 l 2,5,6
 151 169 151 169 195 175 c 0,7,8
 306 189 306 189 335 258 c 0,9,10
 363 324 363 324 350 483 c 0,11,12
 341 591 341 591 318 681 c 1,13,-1
 465 712 l 1,14,15
 500 623 500 623 507 486 c 0,16,17
 523 170 523 170 411 75 c 0,0,1
EndSplineSet
EndChar

StartChar: uniFBE9
Encoding: 64489 64489 140
Width: 696
GlyphClass: 2
Flags: W
AnchorPoint: "Anchor-5" 296 964 basechar 0
AnchorPoint: "Anchor-3" 265 -252 basechar 0
LayerCount: 2
Fore
SplineSet
391 95 m 1,0,1
 306 0 306 0 159 0 c 2,2,-1
 -20 0 l 1,3,-1
 -20 169 l 1,4,-1
 112 169 l 2,5,6
 227 169 227 169 274 215 c 0,7,8
 329 270 329 270 330 343 c 2,9,-1
 335 552 l 1,10,-1
 474 576 l 1,11,-1
 482 343 l 2,12,13
 485 266 485 266 543 215 c 0,14,15
 596 169 596 169 687 169 c 2,16,-1
 718 169 l 1,17,-1
 718 0 l 1,18,-1
 664 0 l 2,19,20
 504 0 504 0 417 95 c 2,21,-1
 404 109 l 1,22,-1
 391 95 l 1,0,1
EndSplineSet
EndChar

StartChar: uniFE73
Encoding: 65139 65139 148
Width: 573
GlyphClass: 2
Flags: W
AnchorPoint: "Anchor-5" 210 1279 basechar 0
AnchorPoint: "Anchor-3" 210 -111 basechar 0
LayerCount: 2
Fore
SplineSet
296 351 m 2,0,1
 296 287 296 287 352 230 c 0,2,3
 403 179 403 179 515 179 c 2,4,-1
 582 179 l 1,5,-1
 582 8 l 1,6,-1
 456 8 l 2,7,8
 309 8 309 8 215 103 c 1,9,10
 125 192 125 192 125 338 c 2,11,-1
 125 371 l 1,12,-1
 296 371 l 1,13,-1
 296 351 l 2,0,1
EndSplineSet
EndChar

StartChar: uniFE8E
Encoding: 65166 65166 174
Width: 520
GlyphClass: 2
Flags: W
AnchorPoint: "Anchor-5" 212 1580 basechar 0
AnchorPoint: "Anchor-3" 246 -206 basechar 0
LayerCount: 2
Fore
SplineSet
168 404 m 2,0,-1
 131 1401 l 1,1,-1
 287 1470 l 1,2,-1
 287 417 l 2,3,4
 287 313 287 313 316 267 c 1,5,6
 381 169 381 169 511 169 c 2,7,-1
 530 169 l 1,8,-1
 530 0 l 1,9,-1
 491 0 l 2,10,11
 313 0 313 0 230 124 c 0,12,13
 175 206 175 206 168 404 c 2,0,-1
EndSplineSet
EndChar

StartChar: uniFEA2
Encoding: 65186 65186 194
Width: 1299
GlyphClass: 2
Flags: W
AnchorPoint: "Anchor-5" 578 1118 basechar 0
AnchorPoint: "Anchor-3" 409 -765 basechar 0
LayerCount: 2
Fore
SplineSet
880 411 m 1,0,1
 681 376 681 376 533 291 c 0,2,3
 245 124 245 124 245 -135 c 0,4,5
 245 -283 245 -283 355 -371 c 1,6,7
 462 -458 462 -458 731 -459 c 0,8,9
 924 -459 924 -459 1085 -413 c 1,10,-1
 1131 -553 l 1,11,12
 936 -613 936 -613 724 -613 c 0,13,14
 341 -613 341 -613 193 -439 c 0,15,16
 91 -319 91 -319 91 -144 c 0,17,18
 91 36 91 36 182 175 c 0,19,20
 288 335 288 335 500 433 c 0,21,22
 684 518 684 518 841 527 c 1,23,24
 776 538 776 538 641 602 c 0,25,26
 509 664 509 664 475 664 c 0,27,28
 347 664 347 664 219 500 c 1,29,-1
 115 580 l 1,30,31
 235 756 235 756 363 797 c 0,32,33
 412 812 412 812 460 812 c 0,34,35
 490 812 490 812 515 805 c 0,36,37
 563 792 563 792 696 727 c 0,38,39
 860 647 860 647 937 620 c 0,40,41
 1013 594 1013 594 1098 583 c 1,42,-1
 1076 429 l 1,43,44
 1037 426 1037 426 1008 424 c 1,45,46
 1040 168 1040 168 1283 168 c 2,47,-1
 1318 168 l 1,48,-1
 1318 0 l 1,49,-1
 1290 0 l 2,50,51
 1199 0 1199 0 1129 21 c 0,52,53
 1069 38 1069 38 1008 98 c 0,54,55
 895 210 895 210 880 411 c 1,0,1
EndSplineSet
EndChar

StartChar: uniFEA3
Encoding: 65187 65187 195
Width: 1269
GlyphClass: 2
Flags: W
AnchorPoint: "Anchor-5" 368 1052 basechar 0
AnchorPoint: "Anchor-3" 563 -208 basechar 0
LayerCount: 2
Fore
SplineSet
617 89 m 0,0,1
 432 0 432 0 43 0 c 2,2,-1
 -20 0 l 1,3,-1
 -20 169 l 1,4,-1
 15 169 l 2,5,6
 363 169 363 169 500 218 c 0,7,8
 739 305 739 305 929 398 c 1,9,10
 849 403 849 403 696 471 c 0,11,12
 505 556 505 556 407 570 c 0,13,14
 292 587 292 587 166 421 c 1,15,-1
 62 501 l 1,16,17
 153 629 153 629 210 672 c 1,18,19
 333 761 333 761 498 717 c 0,20,21
 552 702 552 702 864 567 c 0,22,23
 1068 478 1068 478 1234 489 c 1,24,-1
 1212 356 l 1,25,26
 1134 340 1134 340 617 89 c 0,0,1
EndSplineSet
EndChar

StartChar: uniFEA4
Encoding: 65188 65188 196
Width: 1337
GlyphClass: 2
Flags: W
AnchorPoint: "Anchor-5" 376 1072 basechar 0
AnchorPoint: "Anchor-3" 544 -216 basechar 0
LayerCount: 2
Fore
SplineSet
834 193 m 1,0,1
 738 147 738 147 617 89 c 0,2,3
 432 0 432 0 43 0 c 2,4,-1
 -20 0 l 1,5,-1
 -20 169 l 1,6,-1
 15 169 l 2,7,8
 363 169 363 169 500 218 c 0,9,10
 739 305 739 305 929 398 c 1,11,12
 849 403 849 403 696 471 c 0,13,14
 505 556 505 556 407 570 c 0,15,16
 292 587 292 587 166 421 c 1,17,-1
 62 501 l 1,18,19
 153 629 153 629 210 672 c 0,20,21
 331 762 331 762 498 717 c 0,22,23
 552 702 552 702 864 567 c 0,24,25
 1068 478 1068 478 1234 489 c 1,26,-1
 1212 356 l 1,27,28
 1167 346 1167 346 966 254 c 1,29,30
 977 170 977 170 1243 170 c 2,31,-1
 1358 170 l 1,32,-1
 1358 0 l 1,33,-1
 1222 0 l 2,34,35
 895 0 895 0 834 193 c 1,0,1
EndSplineSet
EndChar

StartChar: uniFEAA
Encoding: 65194 65194 202
Width: 1091
GlyphClass: 2
Flags: W
AnchorPoint: "Anchor-5" 534 1129 basechar 0
AnchorPoint: "Anchor-3" 445 -236 basechar 0
LayerCount: 2
Fore
SplineSet
686 336 m 2,0,-1
 442 833 l 1,1,-1
 592 897 l 1,2,3
 592 897 592 897 856 373 c 0,4,5
 956 175 956 175 1073 170 c 1,6,-1
 1112 169 l 1,7,-1
 1112 0 l 1,8,-1
 1070 0 l 2,9,10
 911 0 911 0 821 122 c 1,11,12
 710 -29 710 -29 338 -20 c 0,13,14
 204 -17 204 -17 90 22 c 1,15,-1
 90 202 l 1,16,17
 204 153 204 153 348 151 c 0,18,19
 594 147 594 147 681 230 c 0,20,21
 705 253 705 253 694 312 c 0,22,23
 692 325 692 325 686 336 c 2,0,-1
EndSplineSet
EndChar

StartChar: uniFEAE
Encoding: 65198 65198 206
Width: 925
GlyphClass: 2
Flags: W
AnchorPoint: "Anchor-5" 489 818 basechar 0
AnchorPoint: "Anchor-3" 461 -621 basechar 0
LayerCount: 2
Fore
SplineSet
520 462 m 1,0,-1
 657 561 l 1,1,2
 720 258 720 258 725 244 c 0,3,4
 750 169 750 169 916 169 c 2,5,-1
 936 169 l 1,6,-1
 936 0 l 1,7,8
 921 0 921 0 921 0 c 2,9,10
 775 0 775 0 734 52 c 1,11,12
 662 -502 662 -502 94 -504 c 1,13,-1
 26 -381 l 1,14,15
 541 -350 541 -350 590 66 c 0,16,17
 602 168 602 168 520 462 c 1,0,-1
EndSplineSet
PairPos2: "'kern' Horizontal Kerning lookup 7 per glyph data 0" uniFEF3 dx=0 dy=0 dh=0 dv=0 dx=0 dy=0 dh=0 dv=0
PairPos2: "'kern' Horizontal Kerning lookup 7 per glyph data 0" uniFEEB dx=-150 dy=0 dh=-150 dv=0 dx=0 dy=0 dh=0 dv=0
PairPos2: "'kern' Horizontal Kerning lookup 7 per glyph data 0" uniFEE7 dx=-150 dy=0 dh=-150 dv=0 dx=0 dy=0 dh=0 dv=0
PairPos2: "'kern' Horizontal Kerning lookup 7 per glyph data 0" uniFEE3 dx=-150 dy=0 dh=-150 dv=0 dx=0 dy=0 dh=0 dv=0
PairPos2: "'kern' Horizontal Kerning lookup 7 per glyph data 0" uniFEDF dx=-150 dy=0 dh=-150 dv=0 dx=0 dy=0 dh=0 dv=0
PairPos2: "'kern' Horizontal Kerning lookup 7 per glyph data 0" uniFEDB dx=-250 dy=0 dh=-250 dv=0 dx=0 dy=0 dh=0 dv=0
PairPos2: "'kern' Horizontal Kerning lookup 7 per glyph data 0" uniFED7 dx=-150 dy=0 dh=-150 dv=0 dx=0 dy=0 dh=0 dv=0
PairPos2: "'kern' Horizontal Kerning lookup 7 per glyph data 0" uniFED3 dx=-150 dy=0 dh=-150 dv=0 dx=0 dy=0 dh=0 dv=0
PairPos2: "'kern' Horizontal Kerning lookup 7 per glyph data 0" uniFECF dx=-150 dy=0 dh=-150 dv=0 dx=0 dy=0 dh=0 dv=0
PairPos2: "'kern' Horizontal Kerning lookup 7 per glyph data 0" uniFECB dx=-150 dy=0 dh=-150 dv=0 dx=0 dy=0 dh=0 dv=0
PairPos2: "'kern' Horizontal Kerning lookup 7 per glyph data 0" uniFEC7 dx=-150 dy=0 dh=-150 dv=0 dx=0 dy=0 dh=0 dv=0
PairPos2: "'kern' Horizontal Kerning lookup 7 per glyph data 0" uniFEC3 dx=-150 dy=0 dh=-150 dv=0 dx=0 dy=0 dh=0 dv=0
PairPos2: "'kern' Horizontal Kerning lookup 7 per glyph data 0" uniFEBF dx=-150 dy=0 dh=-150 dv=0 dx=0 dy=0 dh=0 dv=0
PairPos2: "'kern' Horizontal Kerning lookup 7 per glyph data 0" uniFEBB dx=-150 dy=0 dh=-150 dv=0 dx=0 dy=0 dh=0 dv=0
PairPos2: "'kern' Horizontal Kerning lookup 7 per glyph data 0" uniFEB7 dx=-150 dy=0 dh=-150 dv=0 dx=0 dy=0 dh=0 dv=0
PairPos2: "'kern' Horizontal Kerning lookup 7 per glyph data 0" uniFEB3 dx=-150 dy=0 dh=-150 dv=0 dx=0 dy=0 dh=0 dv=0
PairPos2: "'kern' Horizontal Kerning lookup 7 per glyph data 0" uniFEA7 dx=-150 dy=0 dh=-150 dv=0 dx=0 dy=0 dh=0 dv=0
PairPos2: "'kern' Horizontal Kerning lookup 7 per glyph data 0" uniFEA3 dx=-150 dy=0 dh=-150 dv=0 dx=0 dy=0 dh=0 dv=0
PairPos2: "'kern' Horizontal Kerning lookup 7 per glyph data 0" uniFE9F dx=-150 dy=0 dh=-150 dv=0 dx=0 dy=0 dh=0 dv=0
PairPos2: "'kern' Horizontal Kerning lookup 7 per glyph data 0" uniFE9B dx=-150 dy=0 dh=-150 dv=0 dx=0 dy=0 dh=0 dv=0
PairPos2: "'kern' Horizontal Kerning lookup 7 per glyph data 0" uniFE97 dx=-150 dy=0 dh=-150 dv=0 dx=0 dy=0 dh=0 dv=0
PairPos2: "'kern' Horizontal Kerning lookup 7 per glyph data 0" uniFE91 dx=-70 dy=0 dh=-70 dv=0 dx=0 dy=0 dh=0 dv=0
PairPos2: "'kern' Horizontal Kerning lookup 7 per glyph data 0" uniFBFE dx=0 dy=0 dh=0 dv=0 dx=0 dy=0 dh=0 dv=0
PairPos2: "'kern' Horizontal Kerning lookup 7 per glyph data 0" uniFB94 dx=-250 dy=0 dh=-250 dv=0 dx=0 dy=0 dh=0 dv=0
PairPos2: "'kern' Horizontal Kerning lookup 7 per glyph data 0" uniFB90 dx=-250 dy=0 dh=-250 dv=0 dx=0 dy=0 dh=0 dv=0
PairPos2: "'kern' Horizontal Kerning lookup 7 per glyph data 0" uniFB8A dx=-100 dy=0 dh=-100 dv=0 dx=0 dy=0 dh=0 dv=0
PairPos2: "'kern' Horizontal Kerning lookup 7 per glyph data 0" uniFB7C dx=0 dy=0 dh=0 dv=0 dx=0 dy=0 dh=0 dv=0
PairPos2: "'kern' Horizontal Kerning lookup 7 per glyph data 0" uniFB58 dx=0 dy=0 dh=0 dv=0 dx=0 dy=0 dh=0 dv=0
PairPos2: "'kern' Horizontal Kerning lookup 7 per glyph data 0" uniFB56 dx=-150 dy=0 dh=-150 dv=0 dx=0 dy=0 dh=0 dv=0
PairPos2: "'kern' Horizontal Kerning lookup 7 per glyph data 0" uni06CC dx=-100 dy=0 dh=-100 dv=0 dx=0 dy=0 dh=0 dv=0
PairPos2: "'kern' Horizontal Kerning lookup 7 per glyph data 0" afii57509 dx=-150 dy=0 dh=-150 dv=0 dx=0 dy=0 dh=0 dv=0
PairPos2: "'kern' Horizontal Kerning lookup 7 per glyph data 0" uni06A9 dx=-150 dy=0 dh=-150 dv=0 dx=0 dy=0 dh=0 dv=0
PairPos2: "'kern' Horizontal Kerning lookup 7 per glyph data 0" afii57508 dx=-100 dy=0 dh=-100 dv=0 dx=0 dy=0 dh=0 dv=0
PairPos2: "'kern' Horizontal Kerning lookup 7 per glyph data 0" afii57506 dx=-150 dy=0 dh=-150 dv=0 dx=0 dy=0 dh=0 dv=0
PairPos2: "'kern' Horizontal Kerning lookup 7 per glyph data 0" uni0649 dx=-100 dy=0 dh=-100 dv=0 dx=0 dy=0 dh=0 dv=0
PairPos2: "'kern' Horizontal Kerning lookup 7 per glyph data 0" uni0648 dx=-100 dy=0 dh=-100 dv=0 dx=0 dy=0 dh=0 dv=0
PairPos2: "'kern' Horizontal Kerning lookup 7 per glyph data 0" uni0647 dx=-150 dy=0 dh=-150 dv=0 dx=0 dy=0 dh=0 dv=0
PairPos2: "'kern' Horizontal Kerning lookup 7 per glyph data 0" uni0646 dx=-100 dy=0 dh=-100 dv=0 dx=0 dy=0 dh=0 dv=0
PairPos2: "'kern' Horizontal Kerning lookup 7 per glyph data 0" uni0645 dx=-150 dy=0 dh=-150 dv=0 dx=0 dy=0 dh=0 dv=0
PairPos2: "'kern' Horizontal Kerning lookup 7 per glyph data 0" uni0644 dx=0 dy=0 dh=0 dv=0 dx=0 dy=0 dh=0 dv=0
PairPos2: "'kern' Horizontal Kerning lookup 7 per glyph data 0" uni0642 dx=0 dy=0 dh=0 dv=0 dx=0 dy=0 dh=0 dv=0
PairPos2: "'kern' Horizontal Kerning lookup 7 per glyph data 0" uni0641 dx=-150 dy=0 dh=-150 dv=0 dx=0 dy=0 dh=0 dv=0
PairPos2: "'kern' Horizontal Kerning lookup 7 per glyph data 0" uni0638 dx=-150 dy=0 dh=-150 dv=0 dx=0 dy=0 dh=0 dv=0
PairPos2: "'kern' Horizontal Kerning lookup 7 per glyph data 0" uni0637 dx=-150 dy=0 dh=-150 dv=0 dx=0 dy=0 dh=0 dv=0
PairPos2: "'kern' Horizontal Kerning lookup 7 per glyph data 0" uni0636 dx=-150 dy=0 dh=-150 dv=0 dx=0 dy=0 dh=0 dv=0
PairPos2: "'kern' Horizontal Kerning lookup 7 per glyph data 0" uni0635 dx=-150 dy=0 dh=-150 dv=0 dx=0 dy=0 dh=0 dv=0
PairPos2: "'kern' Horizontal Kerning lookup 7 per glyph data 0" uni0634 dx=-150 dy=0 dh=-150 dv=0 dx=0 dy=0 dh=0 dv=0
PairPos2: "'kern' Horizontal Kerning lookup 7 per glyph data 0" uni0633 dx=-150 dy=0 dh=-150 dv=0 dx=0 dy=0 dh=0 dv=0
PairPos2: "'kern' Horizontal Kerning lookup 7 per glyph data 0" uni0632 dx=-100 dy=0 dh=-100 dv=0 dx=0 dy=0 dh=0 dv=0
PairPos2: "'kern' Horizontal Kerning lookup 7 per glyph data 0" uni0631 dx=-100 dy=0 dh=-100 dv=0 dx=0 dy=0 dh=0 dv=0
PairPos2: "'kern' Horizontal Kerning lookup 7 per glyph data 0" uni0630 dx=-150 dy=0 dh=-150 dv=0 dx=0 dy=0 dh=0 dv=0
PairPos2: "'kern' Horizontal Kerning lookup 7 per glyph data 0" uni062F dx=-150 dy=0 dh=-150 dv=0 dx=0 dy=0 dh=0 dv=0
PairPos2: "'kern' Horizontal Kerning lookup 7 per glyph data 0" uni062B dx=-150 dy=0 dh=-150 dv=0 dx=0 dy=0 dh=0 dv=0
PairPos2: "'kern' Horizontal Kerning lookup 7 per glyph data 0" uni062A dx=-150 dy=0 dh=-150 dv=0 dx=0 dy=0 dh=0 dv=0
PairPos2: "'kern' Horizontal Kerning lookup 7 per glyph data 0" uni0629 dx=-150 dy=0 dh=-150 dv=0 dx=0 dy=0 dh=0 dv=0
PairPos2: "'kern' Horizontal Kerning lookup 7 per glyph data 0" uni0628 dx=-150 dy=0 dh=-150 dv=0 dx=0 dy=0 dh=0 dv=0
PairPos2: "'kern' Horizontal Kerning lookup 7 per glyph data 0" uni0627 dx=-170 dy=0 dh=-170 dv=0 dx=0 dy=0 dh=0 dv=0
PairPos2: "'kern' Horizontal Kerning lookup 7 per glyph data 0" uni0622 dx=-170 dy=0 dh=-170 dv=0 dx=0 dy=0 dh=0 dv=0
EndChar

StartChar: uniFEB2
Encoding: 65202 65202 210
Width: 2414
GlyphClass: 2
Flags: W
AnchorPoint: "Anchor-5" 601 881 basechar 0
AnchorPoint: "Anchor-3" 436 -701 basechar 0
LayerCount: 2
Fore
SplineSet
1205 287 m 1,0,1
 1270 166 1270 166 1416 168 c 0,2,3
 1564 170 1564 170 1586 349 c 2,4,5
 1586 349 1586 349 1608 532 c 1,6,-1
 1729 532 l 1,7,8
 1729 532 1729 532 1744 363 c 0,9,10
 1762 156 1762 156 1921 161 c 1,11,12
 2028 163 2028 163 2042 374 c 2,13,-1
 2058 604 l 1,14,-1
 2181 604 l 1,15,-1
 2199 388 l 2,16,17
 2212 237 2212 237 2262 200 c 1,18,19
 2302 169 2302 169 2407 169 c 2,20,-1
 2434 169 l 1,21,-1
 2434 0 l 1,22,-1
 2379 0 l 1,23,24
 2194 1 2194 1 2129 116 c 1,25,-1
 2124 124 l 1,26,-1
 2120 117 l 1,27,28
 2048 -2 2048 -2 1891 0 c 1,29,30
 1732 1 1732 1 1668 137 c 1,31,32
 1607 -1 1607 -1 1444 0 c 0,33,34
 1248 1 1248 1 1224 74 c 1,35,36
 1219 -481 1219 -481 662 -488 c 0,37,38
 121 -495 121 -495 91 10 c 0,39,40
 87 85 87 85 107 191 c 0,41,42
 129 302 129 302 177 402 c 1,43,-1
 321 353 l 1,44,45
 232 137 232 137 251 -2 c 0,46,47
 294 -330 294 -330 657 -331 c 0,48,49
 1044 -332 1044 -332 1085 0 c 0,50,51
 1112 215 1112 215 980 384 c 1,52,-1
 1113 511 l 1,53,54
 1148 429 1148 429 1205 287 c 1,0,1
EndSplineSet
EndChar

StartChar: uniFEB3
Encoding: 65203 65203 211
Width: 1522
GlyphClass: 2
Flags: W
AnchorPoint: "Anchor-5" 642 953 basechar 0
AnchorPoint: "Anchor-3" 662 -190 basechar 0
LayerCount: 2
Fore
SplineSet
257 41 m 0,0,1
 195 0 195 0 65 0 c 2,2,-1
 -20 0 l 1,3,-1
 -20 169 l 1,4,-1
 6 169 l 2,5,6
 267 169 267 169 283 368 c 1,7,-1
 294 523 l 1,8,-1
 404 523 l 1,9,-1
 419 368 l 2,10,11
 439 162 439 162 622 160 c 0,12,13
 794 158 794 158 810 295 c 2,14,-1
 837 523 l 1,15,-1
 944 523 l 1,16,-1
 966 317 l 2,17,18
 985 139 985 139 1147 159 c 0,19,20
 1212 167 1212 167 1242 223 c 0,21,22
 1283 301 1283 301 1268 423 c 0,23,24
 1262 477 1262 477 1231 645 c 1,25,-1
 1374 691 l 1,26,27
 1414 578 1414 578 1423 445 c 0,28,29
 1439 220 1439 220 1358 107 c 0,30,31
 1283 1 1283 1 1121 0 c 0,32,33
 1052 0 1052 0 1017 16 c 0,34,35
 921 57 921 57 891 145 c 1,36,37
 845 -2 845 -2 590 0 c 0,38,39
 409 2 409 2 345 126 c 1,40,41
 312 78 312 78 257 41 c 0,0,1
EndSplineSet
EndChar

StartChar: uniFEB4
Encoding: 65204 65204 212
Width: 1688
GlyphClass: 2
Flags: W
AnchorPoint: "Anchor-5" 662 948 basechar 0
AnchorPoint: "Anchor-3" 755 -210 basechar 0
LayerCount: 2
Fore
SplineSet
1148 2 m 0,0,1
 973 0 973 0 926 144 c 1,2,3
 839 1 839 1 627 3 c 0,4,5
 458 5 458 5 363 132 c 1,6,7
 352 102 352 102 281 55 c 0,8,9
 198 0 198 0 63 0 c 2,10,-1
 -20 0 l 1,11,-1
 -20 169 l 1,12,-1
 56 169 l 1,13,14
 270 171 270 171 290 324 c 1,15,-1
 318 525 l 1,16,-1
 424 525 l 1,17,-1
 447 361 l 2,18,19
 474 171 474 171 648 166 c 0,20,21
 825 160 825 160 848 328 c 2,22,-1
 875 525 l 1,23,-1
 978 525 l 1,24,-1
 1006 314 l 2,25,26
 1025 166 1025 166 1158 166 c 1,27,28
 1287 165 1287 165 1303 328 c 2,29,-1
 1328 594 l 1,30,-1
 1434 594 l 1,31,-1
 1460 360 l 2,32,33
 1473 245 1473 245 1525 207 c 0,34,35
 1576 170 1576 170 1683 170 c 2,36,-1
 1709 170 l 1,37,-1
 1709 0 l 1,38,-1
 1658 0 l 2,39,40
 1447 0 1447 0 1384 134 c 1,41,42
 1337 4 1337 4 1148 2 c 0,0,1
EndSplineSet
EndChar

StartChar: uniFEBA
Encoding: 65210 65210 218
Width: 2516
GlyphClass: 2
Flags: W
AnchorPoint: "Anchor-5" 628 981 basechar 0
AnchorPoint: "Anchor-3" 415 -673 basechar 0
LayerCount: 2
Fore
SplineSet
1429 180 m 1,0,-1
 1608 180 l 2,1,2
 1907 180 1907 180 2017 222 c 1,3,4
 2130 267 2130 267 2149 354 c 1,5,6
 2158 424 2158 424 2125 468 c 1,7,8
 2088 520 2088 520 2012 531 c 0,9,10
 1880 550 1880 550 1744 465 c 1,11,12
 1561 353 1561 353 1429 180 c 1,0,-1
1390 -2 m 2,13,14
 1298 -2 1298 -2 1241 74 c 1,15,-1
 1224 74 l 1,16,17
 1219 -481 1219 -481 662 -488 c 0,18,19
 121 -495 121 -495 91 10 c 0,20,21
 87 85 87 85 107 191 c 0,22,23
 129 302 129 302 177 402 c 1,24,-1
 321 353 l 1,25,26
 232 137 232 137 251 -2 c 0,27,28
 294 -330 294 -330 657 -331 c 0,29,30
 1044 -332 1044 -332 1085 0 c 0,31,32
 1112 215 1112 215 980 384 c 1,33,-1
 1113 511 l 1,34,35
 1148 429 1148 429 1205 287 c 1,36,37
 1229 233 1229 233 1288 228 c 1,38,39
 1511 551 1511 551 1758 658 c 0,40,41
 1995 760 1995 760 2175 653 c 0,42,43
 2338 556 2338 556 2308 328 c 0,44,45
 2303 297 2303 297 2293 268 c 1,46,47
 2372 169 2372 169 2495 169 c 2,48,-1
 2539 169 l 1,49,-1
 2539 0 l 1,50,-1
 2474 0 l 2,51,52
 2249 0 2249 0 2189 128 c 1,53,54
 2176 117 2176 117 2161 107 c 0,55,56
 2007 1 2007 1 1665 0 c 1,57,-1
 1390 -2 l 2,13,14
EndSplineSet
EndChar

StartChar: uniFEBB
Encoding: 65211 65211 219
Width: 1658
GlyphClass: 2
Flags: W
AnchorPoint: "Anchor-5" 548 1069 basechar 0
AnchorPoint: "Anchor-3" 667 -253 basechar 0
LayerCount: 2
Fore
SplineSet
685 180 m 1,0,-1
 864 180 l 2,1,2
 1163 180 1163 180 1273 223 c 0,3,4
 1387 267 1387 267 1405 354 c 1,5,6
 1414 425 1414 425 1382 469 c 0,7,8
 1345 520 1345 520 1269 531 c 0,9,10
 1137 550 1137 550 1001 465 c 1,11,12
 817 353 817 353 685 180 c 1,0,-1
922 0 m 2,13,-1
 663 1 l 2,14,15
 441 1 441 1 346 156 c 1,16,17
 231 0 231 0 61 0 c 2,18,-1
 -20 0 l 1,19,-1
 -20 169 l 1,20,-1
 2 169 l 2,21,22
 117 169 117 169 172 212 c 0,23,24
 267 286 267 286 270 385 c 1,25,-1
 276 531 l 1,26,-1
 422 531 l 1,27,-1
 429 364 l 2,28,29
 433 249 433 249 544 229 c 1,30,31
 768 552 768 552 1015 658 c 1,32,33
 1252 761 1252 761 1431 654 c 0,34,35
 1595 556 1595 556 1564 329 c 0,36,37
 1547 198 1547 198 1418 107 c 0,38,39
 1266 -1 1266 -1 922 0 c 2,13,-1
EndSplineSet
EndChar

StartChar: uniFEBC
Encoding: 65212 65212 220
Width: 1781
GlyphClass: 2
Flags: W
AnchorPoint: "Anchor-5" 580 1134 basechar 0
AnchorPoint: "Anchor-3" 666 -260 basechar 0
LayerCount: 2
Fore
SplineSet
692 180 m 1,0,-1
 871 180 l 2,1,2
 1170 180 1170 180 1280 223 c 0,3,4
 1393 267 1393 267 1412 354 c 1,5,6
 1421 425 1421 425 1389 469 c 0,7,8
 1352 520 1352 520 1275 531 c 0,9,10
 1143 550 1143 550 1007 465 c 1,11,12
 824 353 824 353 692 180 c 1,0,-1
1452 128 m 1,13,14
 1439 118 1439 118 1424 107 c 0,15,16
 1270 -1 1270 -1 929 0 c 2,17,-1
 663 1 l 2,18,19
 441 1 441 1 346 156 c 1,20,21
 231 0 231 0 61 0 c 2,22,-1
 -20 0 l 1,23,-1
 -20 169 l 1,24,-1
 2 169 l 2,25,26
 117 169 117 169 172 212 c 0,27,28
 267 286 267 286 270 385 c 1,29,-1
 276 531 l 1,30,-1
 422 531 l 1,31,-1
 429 364 l 1,32,33
 434 220 434 220 551 229 c 1,34,35
 774 552 774 552 1021 658 c 0,36,37
 1259 761 1259 761 1438 654 c 0,38,39
 1602 556 1602 556 1571 329 c 0,40,41
 1567 298 1567 298 1556 269 c 1,42,43
 1635 169 1635 169 1759 169 c 2,44,-1
 1802 169 l 1,45,-1
 1802 0 l 1,46,-1
 1737 0 l 2,47,48
 1512 0 1512 0 1452 128 c 1,13,14
EndSplineSet
EndChar

StartChar: uniFEC2
Encoding: 65218 65218 226
Width: 1594
GlyphClass: 2
Flags: W
AnchorPoint: "Anchor-5" 304 1590 basechar 0
AnchorPoint: "Anchor-3" 660 -225 basechar 0
LayerCount: 2
Fore
SplineSet
505 180 m 1,0,-1
 684 180 l 2,1,2
 983 180 983 180 1093 223 c 0,3,4
 1206 267 1206 267 1225 354 c 1,5,6
 1234 425 1234 425 1202 469 c 0,7,8
 1165 520 1165 520 1088 531 c 0,9,10
 956 550 956 550 820 465 c 1,11,12
 637 353 637 353 505 180 c 1,0,-1
364 229 m 1,13,14
 587 552 587 552 834 658 c 0,15,16
 1072 761 1072 761 1251 654 c 0,17,18
 1415 556 1415 556 1384 329 c 0,19,20
 1380 298 1380 298 1369 269 c 1,21,22
 1448 169 1448 169 1572 169 c 2,23,-1
 1615 169 l 1,24,-1
 1615 0 l 1,25,-1
 1550 0 l 2,26,27
 1325 0 1325 0 1265 128 c 1,28,29
 1252 118 1252 118 1237 107 c 0,30,31
 1083 0 1083 0 742 0 c 2,32,-1
 92 0 l 1,33,-1
 92 169 l 1,34,-1
 246 169 l 1,35,-1
 201 1399 l 1,36,-1
 363 1471 l 1,37,-1
 364 229 l 1,13,14
EndSplineSet
EndChar

StartChar: uniFEC3
Encoding: 65219 65219 227
Width: 1460
GlyphClass: 2
Flags: W
AnchorPoint: "Anchor-5" 290 1595 basechar 0
AnchorPoint: "Anchor-3" 540 -238 basechar 0
LayerCount: 2
Fore
SplineSet
490 180 m 1,0,-1
 669 180 l 2,1,2
 968 180 968 180 1078 223 c 0,3,4
 1192 267 1192 267 1210 354 c 1,5,6
 1219 425 1219 425 1187 469 c 0,7,8
 1150 520 1150 520 1073 531 c 0,9,10
 942 550 942 550 806 465 c 1,11,12
 622 353 622 353 490 180 c 1,0,-1
727 0 m 2,13,-1
 -20 0 l 1,14,-1
 -20 169 l 1,15,-1
 233 169 l 1,16,-1
 190 1408 l 1,17,-1
 349 1471 l 1,18,-1
 349 229 l 1,19,20
 572 552 572 552 820 658 c 1,21,22
 1057 761 1057 761 1236 654 c 0,23,24
 1400 556 1400 556 1369 329 c 0,25,26
 1352 198 1352 198 1223 107 c 0,27,28
 1071 0 1071 0 727 0 c 2,13,-1
EndSplineSet
EndChar

StartChar: uniFEC4
Encoding: 65220 65220 228
Width: 1590
GlyphClass: 2
Flags: W
AnchorPoint: "Anchor-5" 270 1584 basechar 0
AnchorPoint: "Anchor-3" 588 -210 basechar 0
LayerCount: 2
Fore
SplineSet
501 180 m 1,0,-1
 680 180 l 2,1,2
 979 180 979 180 1089 223 c 0,3,4
 1202 267 1202 267 1221 354 c 1,5,6
 1230 425 1230 425 1198 469 c 0,7,8
 1161 520 1161 520 1084 531 c 0,9,10
 952 550 952 550 816 465 c 1,11,12
 633 353 633 353 501 180 c 1,0,-1
360 229 m 1,13,14
 583 552 583 552 830 658 c 0,15,16
 1068 761 1068 761 1247 654 c 0,17,18
 1408 558 1408 558 1380 329 c 0,19,20
 1376 298 1376 298 1365 269 c 1,21,22
 1444 169 1444 169 1568 169 c 2,23,-1
 1611 169 l 1,24,-1
 1611 0 l 1,25,-1
 1546 0 l 2,26,27
 1321 0 1321 0 1261 128 c 1,28,29
 1248 118 1248 118 1233 107 c 0,30,31
 1079 0 1079 0 738 0 c 2,32,-1
 -21 0 l 1,33,-1
 -21 169 l 1,34,-1
 242 169 l 1,35,-1
 197 1399 l 1,36,-1
 361 1471 l 1,37,-1
 360 229 l 1,13,14
EndSplineSet
EndChar

StartChar: uniFECA
Encoding: 65226 65226 234
Width: 1191
GlyphClass: 2
Flags: W
AnchorPoint: "Anchor-5" 487 1133 basechar 0
AnchorPoint: "Anchor-3" 351 -765 basechar 0
LayerCount: 2
Fore
SplineSet
573 295 m 1,0,1
 573 295 573 295 550 282 c 0,2,3
 249 118 249 118 249 -135 c 0,4,5
 249 -283 249 -283 359 -371 c 1,6,7
 466 -458 466 -458 735 -459 c 0,8,9
 886 -459 886 -459 1029 -418 c 1,10,-1
 1080 -556 l 1,11,12
 898 -612 898 -612 735 -612 c 0,13,14
 332 -612 332 -612 186 -440 c 0,15,16
 89 -325 89 -325 89 -144 c 0,17,18
 89 29 89 29 198 167 c 0,19,20
 302 298 302 298 464 382 c 1,21,22
 329 438 329 438 229 522 c 0,23,24
 140 596 140 596 147 681 c 1,25,26
 153 769 153 769 286 830 c 0,27,28
 393 879 393 879 569 883 c 0,29,30
 656 884 656 884 735 876 c 0,31,32
 913 858 913 858 965 758 c 0,33,34
 993 704 993 704 978 642 c 0,35,36
 948 518 948 518 696 379 c 1,37,38
 924 169 924 169 1150 169 c 2,39,-1
 1212 169 l 1,40,-1
 1212 0 l 1,41,-1
 1179 0 l 2,42,43
 852 0 852 0 573 295 c 1,0,1
584 743 m 0,44,45
 511 743 511 743 453 733 c 0,46,47
 277 704 277 704 300 648 c 0,48,49
 315 614 315 614 391 565 c 0,50,51
 488 503 488 503 584 459 c 1,52,53
 694 508 694 508 781 575 c 1,54,55
 839 621 839 621 839 649 c 0,56,57
 839 716 839 716 713 733 c 0,58,59
 644 743 644 743 584 743 c 0,44,45
EndSplineSet
EndChar

StartChar: uniFECB
Encoding: 65227 65227 235
Width: 1014
GlyphClass: 2
Flags: W
AnchorPoint: "Anchor-5" 373 1216 basechar 0
AnchorPoint: "Anchor-3" 498 -245 basechar 0
LayerCount: 2
Fore
SplineSet
38 169 m 2,0,1
 202 169 202 169 207 169 c 2,2,-1
 249 169 l 1,3,4
 58 362 58 362 159 599 c 1,5,6
 245 797 245 797 503 817 c 0,7,8
 708 833 708 833 855 694 c 1,9,-1
 800 576 l 1,10,11
 631 683 631 683 469 657 c 0,12,13
 301 630 301 630 275 470 c 128,-1,14
 249 310 249 310 417 192 c 0,15,16
 457 164 457 164 633 199 c 1,17,-1
 926 255 l 1,18,-1
 926 103 l 1,19,20
 525 0 525 0 324 0 c 2,21,-1
 -20 0 l 1,22,-1
 -20 169 l 1,23,-1
 38 169 l 2,0,1
EndSplineSet
EndChar

StartChar: uniFECC
Encoding: 65228 65228 236
Width: 1012
GlyphClass: 2
Flags: W
AnchorPoint: "Anchor-5" 457 1068 basechar 0
AnchorPoint: "Anchor-3" 493 -200 basechar 0
LayerCount: 2
Fore
SplineSet
518 624 m 0,0,1
 446 624 446 624 388 614 c 0,2,3
 212 585 212 585 235 529 c 0,4,5
 250 494 250 494 326 445 c 0,6,7
 422 384 422 384 518 339 c 1,8,9
 600 374 600 374 705 448 c 0,10,11
 773 497 773 497 773 530 c 0,12,13
 773 596 773 596 648 614 c 0,14,15
 578 624 578 624 518 624 c 0,0,1
631 260 m 1,16,17
 777 168 777 168 961 169 c 1,18,-1
 1031 169 l 1,19,-1
 1031 0 l 1,20,-1
 937 0 l 1,21,22
 687 1 687 1 519 161 c 1,23,-1
 515 164 l 1,24,-1
 512 161 l 1,25,26
 343 0 343 0 90 0 c 2,27,-1
 -20 0 l 1,28,-1
 -20 169 l 1,29,-1
 66 169 l 2,30,31
 291 169 291 169 400 262 c 1,32,33
 264 321 264 321 163 403 c 0,34,35
 75 475 75 475 81 561 c 0,36,37
 88 649 88 649 220 710 c 0,38,39
 327 760 327 760 503 763 c 0,40,41
 591 765 591 765 669 757 c 0,42,43
 848 738 848 738 900 639 c 0,44,45
 928 584 928 584 913 523 c 0,46,47
 881 397 881 397 631 260 c 1,16,17
EndSplineSet
EndChar

StartChar: uniFEDA
Encoding: 65242 65242 250
Width: 1840
GlyphClass: 2
Flags: W
AnchorPoint: "Anchor-5" 539 1367 basechar 0
AnchorPoint: "Anchor-3" 570 -228 basechar 0
LayerCount: 2
Fore
SplineSet
751 0 m 0,0,1
 521 0 521 0 426 31 c 0,2,3
 126 129 126 129 96 450 c 0,4,5
 86 559 86 559 128 703 c 1,6,-1
 256 669 l 1,7,8
 231 527 231 527 234 475 c 0,9,10
 244 230 244 230 562 183 c 0,11,12
 659 169 659 169 812 167 c 0,13,14
 1015 165 1015 165 1131 176 c 0,15,16
 1498 210 1498 210 1514 391 c 1,17,-1
 1517 437 l 1,18,-1
 1477 1394 l 1,19,-1
 1634 1471 l 1,20,-1
 1634 407 l 2,21,22
 1634 388 1634 388 1632 352 c 0,23,24
 1628 303 1628 303 1610 251 c 1,25,-1
 1609 249 l 1,26,-1
 1611 247 l 1,27,28
 1668 169 1668 169 1796 169 c 2,29,-1
 1860 169 l 1,30,-1
 1860 0 l 1,31,-1
 1737 0 l 1,32,33
 1635 1 1635 1 1504 108 c 1,34,-1
 1501 110 l 1,35,-1
 1498 108 l 1,36,37
 1408 53 1408 53 1262 28 c 1,38,39
 1081 -1 1081 -1 751 0 c 0,0,1
1046 1181 m 1,40,-1
 1046 1129 l 1,41,42
 976 1124 976 1124 938 1110 c 0,43,44
 840 1073 840 1073 840 1026 c 0,45,46
 840 989 840 989 859 965 c 0,47,48
 876 942 876 942 956 931 c 1,49,50
 1006 923 1006 923 1031 901 c 1,51,52
 1055 878 1055 878 1055 838 c 0,53,54
 1055 742 1055 742 966 692 c 0,55,56
 897 653 897 653 803 652 c 0,57,58
 743 652 743 652 690 661 c 1,59,-1
 690 719 l 1,60,61
 751 711 751 711 793 711 c 0,62,63
 868 711 868 711 916 730 c 0,64,65
 1000 763 1000 763 1000 817 c 0,66,67
 1000 877 1000 877 903 893 c 0,68,69
 846 902 846 902 815 933.5 c 128,-1,70
 784 965 784 965 785 1022 c 0,71,72
 787 1098 787 1098 858 1134 c 0,73,74
 938 1174 938 1174 1046 1181 c 1,40,-1
EndSplineSet
EndChar

StartChar: uniFEDB
Encoding: 65243 65243 251
Width: 896
GlyphClass: 2
Flags: W
AnchorPoint: "Anchor-5" 206 1380 basechar 0
AnchorPoint: "Anchor-3" 305 -230 basechar 0
LayerCount: 2
Fore
SplineSet
616 268 m 0,0,1
 551 0 551 0 158 0 c 2,2,-1
 -20 0 l 1,3,-1
 -20 169 l 1,4,-1
 238 169 l 2,5,6
 454 169 454 169 482 307 c 0,7,8
 498 385 498 385 421 471 c 2,9,-1
 160 761 l 2,10,11
 70 861 70 861 67 929 c 0,12,13
 63 1042 63 1042 181 1106 c 2,14,-1
 856 1470 l 1,15,-1
 856 1303 l 1,16,-1
 197 946 l 1,17,-1
 528 580 l 2,18,19
 629 468 629 468 625 337 c 0,20,21
 624 300 624 300 616 268 c 0,0,1
EndSplineSet
EndChar

StartChar: uniFEDC
Encoding: 65244 65244 252
Width: 1023
GlyphClass: 2
Flags: W
AnchorPoint: "Anchor-5" 206 1380 basechar 0
AnchorPoint: "Anchor-3" 317 -220 basechar 0
LayerCount: 2
Fore
SplineSet
611 262 m 1,0,1
 587 0 587 0 158 0 c 2,2,-1
 -20 0 l 1,3,-1
 -20 169 l 1,4,-1
 238 169 l 2,5,6
 454 169 454 169 482 307 c 0,7,8
 498 385 498 385 421 471 c 2,9,-1
 160 761 l 2,10,11
 70 860 70 860 67 929 c 0,12,13
 63 1042 63 1042 181 1106 c 2,14,-1
 856 1470 l 1,15,-1
 856 1303 l 1,16,-1
 197 946 l 1,17,-1
 813 263 l 2,18,19
 897 169 897 169 1010 169 c 2,20,-1
 1043 169 l 1,21,-1
 1043 0 l 1,22,-1
 979 0 l 2,23,24
 808 0 808 0 611 262 c 1,0,1
EndSplineSet
EndChar

StartChar: uniFEDE
Encoding: 65246 65246 254
Width: 1436
GlyphClass: 2
Flags: W
AnchorPoint: "Anchor-5" 440 880 basechar 0
AnchorPoint: "Anchor-3" 390 -774 basechar 0
LayerCount: 2
Fore
SplineSet
1178 76 m 1,0,1
 1158 -128 1158 -128 1114 -225 c 0,2,3
 996 -485 996 -485 635 -500 c 0,4,5
 351 -512 351 -512 214 -366 c 1,6,7
 88 -234 88 -234 91 -9 c 1,8,9
 95 212 95 212 179 379 c 1,10,-1
 333 341 l 1,11,12
 238 152 238 152 243 -6 c 0,13,14
 248 -179 248 -179 343 -262 c 0,15,16
 455 -360 455 -360 655 -349 c 0,17,18
 813 -341 813 -341 922 -262 c 0,19,20
 1054 -166 1054 -166 1057 107 c 1,21,-1
 1058 272 l 1,22,-1
 1023 1400 l 1,23,-1
 1181 1471 l 1,24,-1
 1181 400 l 2,25,26
 1181 279 1181 279 1239 222 c 1,27,28
 1291 169 1291 169 1395 169 c 2,29,-1
 1456 169 l 1,30,-1
 1456 0 l 1,31,-1
 1409 0 l 2,32,33
 1287 0 1287 0 1178 76 c 1,0,1
EndSplineSet
EndChar

StartChar: uniFEDF
Encoding: 65247 65247 255
Width: 524
GlyphClass: 2
Flags: W
AnchorPoint: "Anchor-5" 297 1587 basechar 0
AnchorPoint: "Anchor-3" 230 -194 basechar 0
LayerCount: 2
Fore
SplineSet
393 437 m 2,0,1
 393 205 393 205 296 98 c 0,2,3
 207 0 207 0 62 0 c 2,4,-1
 -20 0 l 1,5,-1
 -20 169 l 1,6,-1
 13 169 l 2,7,8
 152 169 152 169 216 249 c 0,9,10
 278 327 278 327 273 450 c 2,11,-1
 235 1402 l 1,12,-1
 393 1471 l 1,13,-1
 393 437 l 2,0,1
EndSplineSet
EndChar

StartChar: uniFEE0
Encoding: 65248 65248 256
Width: 615
GlyphClass: 2
Flags: W
AnchorPoint: "Anchor-5" 277 1583 basechar 0
AnchorPoint: "Anchor-3" 243 -244 basechar 0
LayerCount: 2
Fore
SplineSet
273 95 m 1,0,1
 189 0 189 0 81 0 c 2,2,-1
 -20 0 l 1,3,-1
 -20 169 l 1,4,-1
 22 169 l 2,5,6
 128 169 128 169 186 222 c 1,7,8
 252 280 252 280 247 400 c 2,9,-1
 208 1403 l 1,10,-1
 365 1470 l 1,11,-1
 365 400 l 2,12,13
 365 281 365 281 425 222 c 0,14,15
 478 169 478 169 595 169 c 2,16,-1
 636 169 l 1,17,-1
 636 0 l 1,18,-1
 536 0 l 2,19,20
 387 0 387 0 300 95 c 2,21,-1
 287 109 l 1,22,-1
 273 95 l 1,0,1
EndSplineSet
EndChar

StartChar: uniFEE2
Encoding: 65250 65250 258
Width: 1114
GlyphClass: 2
Flags: W
AnchorPoint: "Anchor-5" 551 991 basechar 0
AnchorPoint: "Anchor-3" 189 -758 basechar 0
LayerCount: 2
Fore
SplineSet
461 386 m 1,0,1
 468 186 468 186 582 104 c 0,2,3
 653 53 653 53 737 79 c 0,4,5
 837 110 837 110 800 346 c 0,6,7
 782 458 782 458 676 460 c 0,8,9
 539 463 539 463 461 386 c 1,0,1
950 242 m 1,10,11
 999 169 999 169 1109 169 c 2,12,-1
 1134 169 l 1,13,-1
 1134 1 l 1,14,-1
 1094 1 l 2,15,16
 954 1 954 1 902 79 c 1,17,18
 879 -51 879 -51 759 -70 c 0,19,20
 648 -87 648 -87 558 -52 c 1,21,22
 346 34 346 34 334 340 c 1,23,24
 273 320 273 320 235 229 c 0,25,26
 208 164 208 164 217 19 c 2,27,-1
 254 -559 l 1,28,-1
 99 -637 l 1,29,-1
 99 79 l 2,30,31
 99 343 99 343 274 469 c 0,32,33
 419 574 419 574 596 596 c 0,34,35
 732 613 732 613 810 568 c 1,36,37
 896 520 896 520 925 406 c 0,38,39
 939 348 939 348 950 242 c 1,10,11
EndSplineSet
EndChar

StartChar: uniFEE3
Encoding: 65251 65251 259
Width: 908
GlyphClass: 2
Flags: W
AnchorPoint: "Anchor-5" 380 970 basechar 0
AnchorPoint: "Anchor-3" 344 -209 basechar 0
LayerCount: 2
Fore
SplineSet
812 123 m 1,0,1
 769 -43 769 -43 548 -24 c 0,2,3
 372 -9 372 -9 250 90 c 1,4,5
 196 0 196 0 36 0 c 2,6,-1
 -20 0 l 1,7,-1
 -20 169 l 1,8,-1
 51 169 l 2,9,10
 145 169 145 169 161 231 c 0,11,12
 189 343 189 343 211 411 c 0,13,14
 284 632 284 632 456 668 c 0,15,16
 674 713 674 713 775 454 c 0,17,18
 848 266 848 266 812 123 c 1,0,1
453 146 m 0,19,20
 679 75 679 75 675 272 c 0,21,22
 674 318 674 318 633 404 c 0,23,24
 587 501 587 501 517 509 c 0,25,26
 445 518 445 518 381 429 c 1,27,28
 344 380 344 380 306 227 c 1,29,30
 384 167 384 167 453 146 c 0,19,20
EndSplineSet
EndChar

StartChar: uniFEE4
Encoding: 65252 65252 260
Width: 1015
GlyphClass: 2
Flags: W
AnchorPoint: "Anchor-5" 432 936 basechar 0
AnchorPoint: "Anchor-3" 396 -218 basechar 0
LayerCount: 2
Fore
SplineSet
478 121 m 1,0,1
 580 90 580 90 632 121 c 0,2,3
 736 185 736 185 632 384 c 0,4,5
 571 500 571 500 484 493 c 0,6,7
 346 481 346 481 315 218 c 1,8,-1
 315 215 l 1,9,-1
 317 214 l 1,10,11
 400 146 400 146 478 121 c 1,0,1
584 -50 m 0,12,13
 374 -50 374 -50 252 86 c 1,14,15
 157 0 157 0 18 0 c 2,16,-1
 -20 0 l 1,17,-1
 -20 169 l 1,18,-1
 24 169 l 2,19,20
 168 169 168 169 179 226 c 1,21,22
 178 226 178 226 195 325 c 0,23,24
 222 474 222 474 281 544 c 0,25,26
 375 655 375 655 506 643 c 0,27,28
 698 626 698 626 804 350 c 0,29,30
 874 169 874 169 995 169 c 2,31,-1
 1035 169 l 1,32,-1
 1035 0 l 1,33,-1
 992 0 l 2,34,35
 851 0 851 0 777 118 c 1,36,37
 752 -50 752 -50 584 -50 c 0,12,13
EndSplineSet
EndChar

StartChar: uniFEEA
Encoding: 65258 65258 266
Width: 1101
GlyphClass: 2
Flags: W
AnchorPoint: "Anchor-5" 633 1185 basechar 0
AnchorPoint: "Anchor-3" 432 -186 basechar 0
LayerCount: 2
Fore
SplineSet
724 383 m 1,0,1
 709 544 709 544 691 658 c 1,2,3
 235 621 235 621 246 457 c 0,4,5
 250 386 250 386 323 369 c 1,6,7
 472 338 472 338 724 383 c 1,0,1
741 241 m 1,8,9
 215 161 215 161 110 361 c 0,10,11
 94 390 94 390 92 434 c 0,12,13
 75 743 75 743 672 791 c 1,14,15
 672 817 672 817 658 916 c 1,16,-1
 801 951 l 1,17,18
 814 828 814 828 860 427 c 0,19,20
 884 221 884 221 959 189 c 0,21,22
 1005 169 1005 169 1095 169 c 2,23,-1
 1121 169 l 1,24,-1
 1121 0 l 1,25,-1
 1074 0 l 2,26,27
 779 0 779 0 741 241 c 1,8,9
EndSplineSet
EndChar

StartChar: uniFEEB
Encoding: 65259 65259 267
Width: 1145
GlyphClass: 2
Flags: W
AnchorPoint: "Anchor-5" 555 1213 basechar 0
AnchorPoint: "Anchor-3" 379 -230 basechar 0
LayerCount: 2
Fore
SplineSet
711 506 m 1,0,1
 740 403 740 403 702 326 c 0,2,3
 664 247 664 247 547 176 c 1,4,-1
 538 170 l 1,5,6
 884 26 884 26 922 221 c 0,7,8
 943 331 943 331 711 506 c 1,0,1
433 711 m 1,9,10
 382 740 382 740 356 754 c 1,11,-1
 406 870 l 1,12,13
 406 870 406 870 738 659 c 1,14,15
 1034 463 1034 463 1053 294 c 0,16,17
 1086 5 1086 5 807 -24 c 0,18,19
 632 -43 632 -43 383 71 c 1,20,-1
 381 71 l 1,21,-1
 379 71 l 1,22,23
 225 0 225 0 6 0 c 2,24,-1
 -20 0 l 1,25,-1
 -20 169 l 1,26,-1
 47 169 l 2,27,28
 105 169 105 169 163 170 c 1,29,30
 98 251 98 251 103 367 c 0,31,32
 107 465 107 465 162 552 c 1,33,34
 237 668 237 668 359 706 c 0,35,36
 406 720 406 720 433 711 c 1,9,10
589 380 m 0,37,38
 648 511 648 511 568 564 c 0,39,40
 427 659 427 659 316 524 c 0,41,42
 258 455 258 455 250 399 c 1,43,44
 224 243 224 243 373 195 c 1,45,46
 542 278 542 278 589 380 c 0,37,38
EndSplineSet
EndChar

StartChar: uniFEEC
Encoding: 65260 65260 268
Width: 951
GlyphClass: 2
Flags: W
AnchorPoint: "Anchor-5" 413 1082 basechar 0
AnchorPoint: "Anchor-3" 273 -693 basechar 0
LayerCount: 2
Fore
SplineSet
306 169 m 1,0,-1
 346 171 l 2,1,2
 423 175 423 175 463 234 c 0,3,4
 532 337 532 337 532 480 c 0,5,6
 532 559 532 559 515 586 c 0,7,8
 489 626 489 626 445 626 c 0,9,10
 357 626 357 626 321 465 c 0,11,12
 284 303 284 303 306 169 c 1,0,-1
217 596 m 1,13,14
 289 762 289 762 446 761 c 0,15,16
 557 760 557 760 611 698 c 0,17,18
 678 621 678 621 678 507 c 0,19,20
 678 228 678 228 506 71 c 0,21,22
 427 0 427 0 320 0 c 1,23,24
 311 -203 311 -203 416 -351 c 1,25,26
 457 -62 457 -62 660 89 c 0,27,28
 764 167 764 167 899 170 c 1,29,-1
 976 169 l 1,30,-1
 976 0 l 1,31,-1
 857 0 l 1,32,33
 606 -1 606 -1 482 -556 c 1,34,35
 201 -459 201 -459 174 0 c 1,36,-1
 -21 0 l 1,37,-1
 -21 169 l 1,38,-1
 172 169 l 1,39,40
 162 472 162 472 217 596 c 1,13,14
EndSplineSet
EndChar

StartChar: uniFEEE
Encoding: 65262 65262 270
Width: 848
GlyphClass: 2
Flags: W
AnchorPoint: "Anchor-5" 322 1059 basechar 0
AnchorPoint: "Anchor-3" 499 -614 basechar 0
LayerCount: 2
Fore
SplineSet
432 515 m 0,0,1
 302 512 302 512 256 361 c 0,2,3
 198 173 198 173 405 157 c 0,4,5
 456 153 456 153 595 160 c 1,6,7
 596 273 596 273 580 354 c 0,8,9
 547 518 547 518 432 515 c 0,0,1
727 0 m 1,10,11
 700 -181 700 -181 579 -322 c 0,12,13
 421 -506 421 -506 91 -506 c 1,14,-1
 26 -380 l 1,15,16
 521 -350 521 -350 587 1 c 1,17,18
 563 1 563 1 418 1 c 0,19,20
 240 1 240 1 166 87 c 0,21,22
 89 175 89 175 104 301 c 0,23,24
 123 472 123 472 234 578 c 1,25,26
 333 674 333 674 447 667 c 0,27,28
 599 657 599 657 667 516 c 0,29,30
 721 405 721 405 733 256 c 0,31,32
 740 176 740 176 741 168 c 1,33,-1
 869 169 l 1,34,-1
 869 0 l 1,35,-1
 727 0 l 1,10,11
EndSplineSet
EndChar

StartChar: uniFEF0
Encoding: 65264 65264 272
Width: 1398
GlyphClass: 2
Flags: W
AnchorPoint: "Anchor-5" 552 463 basechar 0
AnchorPoint: "Anchor-3" 325 -735 basechar 0
LayerCount: 2
Fore
SplineSet
1371 170 m 1,0,1
 1395 169 1395 169 1419 169 c 1,2,-1
 1419 1 l 1,3,-1
 1289 1 l 1,4,-1
 1126 0 l 2,5,6
 1072 0 1072 0 1057 -30 c 0,7,8
 1043 -60 1043 -60 1071 -77 c 0,9,10
 1100 -94 1100 -94 1161 -100.5 c 128,-1,11
 1222 -107 1222 -107 1247 -117 c 0,12,13
 1318 -144 1318 -144 1318 -237 c 0,14,15
 1318 -388 1318 -388 1213 -479 c 0,16,17
 1020 -644 1020 -644 663 -644 c 0,18,19
 91 -644 91 -644 91 -166 c 0,20,21
 91 75 91 75 240 291 c 1,22,-1
 365 235 l 1,23,24
 278 104 278 104 249 -62 c 0,25,26
 241 -108 241 -108 241 -141 c 256,27,28
 241 -174 241 -174 248 -221 c 1,29,30
 254 -269 254 -269 297 -333 c 1,31,32
 394 -482 394 -482 701 -482 c 0,33,34
 821 -482 821 -482 931 -458 c 0,35,36
 1117 -418 1117 -418 1179 -329 c 0,37,38
 1198 -302 1198 -302 1198 -278 c 0,39,40
 1198 -227 1198 -227 1121 -225 c 256,41,42
 1044 -223 1044 -223 996 -198 c 0,43,44
 896 -145 896 -145 896 -35 c 0,45,46
 896 18 896 18 924 70 c 0,47,48
 978 170 978 170 1134 170 c 2,49,-1
 1371 170 l 1,0,1
EndSplineSet
EndChar

StartChar: uniFEFB
Encoding: 65275 65275 283
Width: 1070
GlyphClass: 3
Flags: W
AnchorPoint: "Anchor-4" 823 1585 baselig 0
AnchorPoint: "Anchor-2" 845 -219 baselig 0
AnchorPoint: "Anchor-2" 281 -264 baselig 1
AnchorPoint: "Anchor-4" 124 1486 baselig 1
LayerCount: 2
Fore
SplineSet
568 150 m 1,0,1
 705 171 705 171 763 237 c 0,2,3
 828 311 828 311 822 450 c 2,4,-1
 781 1402 l 1,5,-1
 939 1471 l 1,6,-1
 939 437 l 2,7,8
 939 218 939 218 838 129 c 0,9,10
 676 -12 676 -12 306 3 c 0,11,12
 199 8 199 8 171 31 c 1,13,-1
 171 170 l 1,14,15
 310 128 310 128 440 139 c 1,16,17
 338 924 338 924 94 1236 c 1,18,-1
 229 1341 l 1,19,20
 466 949 466 949 568 150 c 1,0,1
EndSplineSet
Ligature2: "'rlig' Required Ligatures in Arabic lookup 8 subtable" uniFEDF uniFE8E
EndChar

StartChar: uniFEFC
Encoding: 65276 65276 284
Width: 1206
GlyphClass: 3
Flags: W
AnchorPoint: "Anchor-4" 882 1569 baselig 0
AnchorPoint: "Anchor-2" 883 -212 baselig 0
AnchorPoint: "Anchor-2" 248 -266 baselig 1
AnchorPoint: "Anchor-4" 112 1469 baselig 1
LayerCount: 2
Fore
SplineSet
755 159 m 0,0,1
 613 2 613 2 334 0 c 0,2,3
 209 0 209 0 124 16 c 1,4,-1
 124 178 l 1,5,6
 350 135 350 135 416 163 c 1,7,8
 297 993 297 993 100 1260 c 1,9,-1
 235 1365 l 1,10,11
 431 1042 431 1042 539 200 c 1,12,13
 737 321 737 321 795 528 c 0,14,15
 836 673 836 673 823 908 c 2,16,-1
 797 1400 l 1,17,-1
 954 1470 l 1,18,-1
 954 632 l 2,19,20
 954 460 954 460 992 350 c 0,21,22
 1053 169 1053 169 1181 169 c 2,23,-1
 1227 169 l 1,24,-1
 1227 0 l 1,25,-1
 1182 0 l 2,26,27
 926 0 926 0 857 348 c 1,28,29
 815 226 815 226 755 159 c 0,0,1
EndSplineSet
Ligature2: "'rlig' Required Ligatures in Arabic lookup 8 subtable" uniFEE0 uniFE8E
EndChar

StartChar: arabic_dot
Encoding: 65539 -1 285
Width: 150
GlyphClass: 2
Flags: W
LayerCount: 2
Fore
SplineSet
102 184 m 2,0,-1
 180 105 l 2,1,2
 203 82 203 82 181 60 c 2,3,-1
 99 -22 l 2,4,5
 74 -46 74 -46 51 -22 c 2,6,-1
 -31 60 l 2,7,8
 -54 82 -54 82 -28 108 c 2,9,-1
 48 185 l 2,10,11
 74 211 74 211 102 184 c 2,0,-1
EndSplineSet
EndChar

StartChar: arabic_2dots
Encoding: 65540 -1 286
Width: 452
GlyphClass: 2
Flags: W
LayerCount: 2
Fore
SplineSet
395 184 m 2,0,-1
 473 105 l 2,1,2
 496 82 496 82 474 60 c 2,3,-1
 392 -22 l 2,4,5
 368 -46 368 -46 344 -22 c 2,6,-1
 262 60 l 2,7,8
 239 82 239 82 265 108 c 2,9,-1
 341 185 l 2,10,11
 368 211 368 211 395 184 c 2,0,-1
112 184 m 2,12,-1
 190 105 l 2,13,14
 213 82 213 82 191 60 c 2,15,-1
 109 -22 l 2,16,17
 84 -46 84 -46 61 -22 c 2,18,-1
 -21 60 l 2,19,20
 -44 82 -44 82 -18 108 c 2,21,-1
 58 185 l 2,22,23
 84 211 84 211 112 184 c 2,12,-1
EndSplineSet
EndChar

StartChar: arabic_3dots
Encoding: 65541 -1 287
Width: 455
GlyphClass: 2
Flags: W
LayerCount: 2
Fore
SplineSet
254 396 m 2,0,-1
 332 318 l 2,1,2
 355 295 355 295 333 273 c 2,3,-1
 251 191 l 2,4,5
 226 167 226 167 203 190 c 2,6,-1
 121 272 l 2,7,8
 98 295 98 295 124 320 c 2,9,-1
 200 397 l 2,10,11
 226 423 226 423 254 396 c 2,0,-1
396 172 m 2,12,-1
 474 93 l 2,13,14
 497 71 497 71 475 48 c 2,15,-1
 393 -34 l 2,16,17
 368 -58 368 -58 345 -34 c 2,18,-1
 263 48 l 2,19,20
 240 71 240 71 266 96 c 2,21,-1
 342 173 l 2,22,23
 368 199 368 199 396 172 c 2,12,-1
113 172 m 2,24,-1
 191 93 l 2,25,26
 214 71 214 71 192 48 c 2,27,-1
 110 -34 l 2,28,29
 86 -58 86 -58 62 -34 c 2,30,-1
 -20 48 l 2,31,32
 -43 71 -43 71 -17 96 c 2,33,-1
 59 173 l 2,34,35
 86 199 86 199 113 172 c 2,24,-1
EndSplineSet
EndChar

StartChar: arabic_3dots_a
Encoding: 65542 -1 288
Width: 454
GlyphClass: 2
Flags: W
LayerCount: 2
Fore
SplineSet
248 -17 m 2,0,-1
 326 -95 l 2,1,2
 349 -118 349 -118 327 -140 c 2,3,-1
 245 -222 l 2,4,5
 221 -246 221 -246 197 -222 c 2,6,-1
 115 -140 l 2,7,8
 92 -118 92 -118 118 -92 c 2,9,-1
 194 -16 l 2,10,11
 221 11 221 11 248 -17 c 2,0,-1
396 192 m 2,12,-1
 474 113 l 2,13,14
 497 91 497 91 475 68 c 2,15,-1
 393 -14 l 2,16,17
 368 -38 368 -38 345 -14 c 2,18,-1
 263 68 l 2,19,20
 240 91 240 91 266 116 c 2,21,-1
 342 193 l 2,22,23
 368 219 368 219 396 192 c 2,12,-1
113 192 m 2,24,-1
 191 113 l 2,25,26
 214 91 214 91 192 68 c 2,27,-1
 110 -14 l 2,28,29
 86 -38 86 -38 62 -14 c 2,30,-1
 -20 68 l 2,31,32
 -43 91 -43 91 -17 116 c 2,33,-1
 59 193 l 2,34,35
 86 219 86 219 113 192 c 2,24,-1
EndSplineSet
EndChar

StartChar: uni066E.fina
Encoding: 65543 -1 289
Width: 2006
GlyphClass: 2
Flags: W
AnchorPoint: "Anchor-5" 698 1060 basechar 0
AnchorPoint: "Anchor-3" 698 -179 basechar 0
LayerCount: 2
Fore
SplineSet
853 0 m 0,0,1
 533 0 533 0 374 66 c 0,2,3
 117 173 117 173 91 450 c 0,4,5
 81 559 81 559 123 703 c 1,6,-1
 251 669 l 1,7,8
 232 538 232 538 235 475 c 0,9,10
 244 230 244 230 557 183 c 0,11,12
 633 172 633 172 800 171 c 0,13,14
 1257 170 1257 170 1416 245 c 0,15,16
 1605 335 1605 335 1630 538 c 1,17,-1
 1739 538 l 1,18,19
 1745 467 1745 467 1755 407 c 0,20,21
 1779 270 1779 270 1833 217 c 0,22,23
 1882 169 1882 169 1977 169 c 2,24,-1
 2016 169 l 1,25,-1
 2016 0 l 1,26,-1
 1955 0 l 2,27,28
 1734 0 1734 0 1647 210 c 1,29,30
 1600 152 1600 152 1466 89 c 0,31,32
 1277 0 1277 0 853 0 c 0,0,1
EndSplineSet
EndChar

StartChar: uni06A1.fina
Encoding: 65546 -1 292
Width: 1884
GlyphClass: 2
Flags: W
AnchorPoint: "Anchor-5" 537 1167 basechar 0
AnchorPoint: "Anchor-3" 644 -223 basechar 0
LayerCount: 2
Fore
SplineSet
855 0 m 0,0,1
 539 0 539 0 380 66 c 0,2,3
 122 174 122 174 97 450 c 0,4,5
 87 559 87 559 129 703 c 1,6,-1
 257 669 l 1,7,8
 236 532 236 532 239 475 c 0,9,10
 249 230 249 230 563 183 c 0,11,12
 610 176 610 176 806 171 c 0,13,14
 923 168 923 168 1037 177 c 1,15,16
 1217 193 1217 193 1266 220 c 1,17,-1
 1258 226 l 1,18,19
 1202 266 1202 266 1168 309 c 0,20,21
 1046 467 1046 467 1115 638 c 1,22,23
 1172 766 1172 766 1304 810 c 0,24,25
 1462 863 1462 863 1592 790 c 1,26,27
 1721 716 1721 716 1749 570 c 1,28,29
 1784 380 1784 380 1614 253 c 2,30,-1
 1610 250 l 1,31,32
 1693 169 1693 169 1833 169 c 2,33,-1
 1905 169 l 1,34,-1
 1905 0 l 1,35,-1
 1825 0 l 2,36,37
 1622 0 1622 0 1449 150 c 1,38,39
 1325 66 1325 66 1227 38 c 0,40,41
 1096 0 1096 0 855 0 c 0,0,1
1240 505 m 128,-1,43
 1240 428 1240 428 1294.5 373.5 c 128,-1,44
 1349 319 1349 319 1426 319 c 128,-1,45
 1503 319 1503 319 1557.5 373.5 c 128,-1,46
 1612 428 1612 428 1612 505 c 128,-1,47
 1612 582 1612 582 1557.5 636.5 c 128,-1,48
 1503 691 1503 691 1426 691 c 128,-1,49
 1349 691 1349 691 1294.5 636.5 c 128,-1,42
 1240 582 1240 582 1240 505 c 128,-1,43
EndSplineSet
EndChar

StartChar: uni06A1.init
Encoding: 65547 -1 293
Width: 815
GlyphClass: 2
Flags: W
AnchorPoint: "Anchor-5" 405 1224 basechar 0
AnchorPoint: "Anchor-3" 380 -170 basechar 0
LayerCount: 2
Fore
SplineSet
408 848 m 0,0,1
 289 845 289 845 249 684 c 256,2,3
 209 523 209 523 348 499 c 0,4,5
 489 475 489 475 584 548 c 1,6,7
 592 572 592 572 574 666 c 0,8,9
 540 852 540 852 408 848 c 0,0,1
723 609 m 0,10,11
 736 492 736 492 715 326 c 0,12,13
 693 145 693 145 559 60 c 0,14,15
 465 0 465 0 196 0 c 2,16,-1
 -20 0 l 1,17,-1
 -20 169 l 1,18,-1
 82 169 l 2,19,20
 403 169 403 169 445 184 c 0,21,22
 575 231 575 231 578 403 c 1,23,24
 524 353 524 353 381 350 c 1,25,26
 223 348 223 348 153 441 c 0,27,28
 90 524 90 524 105 651 c 0,29,30
 123 814 123 814 215 910 c 0,31,32
 327 1028 327 1028 473 998 c 0,33,34
 576 976 576 976 640 868 c 1,35,36
 706 759 706 759 723 609 c 0,10,11
EndSplineSet
EndChar

StartChar: uni06A1.medi
Encoding: 65548 -1 294
Width: 1004
GlyphClass: 2
Flags: W
AnchorPoint: "Anchor-5" 510 1007 basechar 0
AnchorPoint: "Anchor-3" 510 -170 basechar 0
LayerCount: 2
Fore
SplineSet
321 488.5 m 128,-1,1
 321 412 321 412 376.5 358 c 128,-1,2
 432 304 432 304 511 304 c 128,-1,3
 590 304 590 304 645.5 358 c 128,-1,4
 701 412 701 412 701 488.5 c 128,-1,5
 701 565 701 565 645.5 619.5 c 128,-1,6
 590 674 590 674 511 674 c 128,-1,7
 432 674 432 674 376.5 619.5 c 128,-1,0
 321 565 321 565 321 488.5 c 128,-1,1
682 784 m 0,8,9
 813 723 813 723 848 581 c 0,10,11
 871 489 871 489 835 372 c 0,12,13
 804 271 804 271 672 196 c 1,14,15
 742 168 742 168 950 169 c 1,16,-1
 1025 169 l 1,17,-1
 1025 0 l 1,18,-1
 814 0 l 2,19,20
 665 0 665 0 513 106 c 1,21,-1
 510 108 l 1,22,-1
 508 106 l 1,23,24
 346 0 346 0 208 0 c 2,25,-1
 -20 0 l 1,26,-1
 -20 169 l 1,27,-1
 70 169 l 2,28,29
 259 169 259 169 336 199 c 1,30,31
 237 263 237 263 190 368 c 0,32,33
 146 465 146 465 178 583 c 0,34,35
 219 732 219 732 366 791 c 0,36,37
 431 818 431 818 516 819 c 1,38,39
 607 819 607 819 682 784 c 0,8,9
EndSplineSet
EndChar

StartChar: uni066F.fina
Encoding: 65549 -1 295
Width: 1528
GlyphClass: 2
Flags: W
AnchorPoint: "Anchor-5" 387 900 basechar 0
AnchorPoint: "Anchor-3" 470 -718 basechar 0
LayerCount: 2
Fore
SplineSet
1261 3 m 1,0,1
 1248 1 1248 1 1085 1 c 0,2,3
 907 1 907 1 833 87 c 0,4,5
 755 177 755 177 771 301 c 1,6,7
 792 479 792 479 901 585 c 0,8,9
 1000 681 1000 681 1114 674 c 0,10,11
 1273 664 1273 664 1341 523 c 0,12,13
 1394 412 1394 412 1407 256 c 0,14,15
 1413 176 1413 176 1415 169 c 1,16,17
 1453 169 1453 169 1492 169 c 2,18,-1
 1548 169 l 1,19,-1
 1548 0 l 1,20,-1
 1411 2 l 1,21,-1
 1411 -3 l 1,22,23
 1395 -264 1395 -264 1212 -426 c 0,24,25
 1022 -595 1022 -595 709 -588 c 0,26,27
 393 -581 393 -581 245 -430 c 0,28,29
 91 -274 91 -274 95 -7 c 0,30,31
 98 199 98 199 188 385 c 1,32,-1
 337 347 l 1,33,34
 252 123 252 123 253 -14 c 0,35,36
 256 -435 256 -435 732 -430 c 0,37,38
 1028 -427 1028 -427 1165 -266 c 0,39,40
 1259 -156 1259 -156 1261 3 c 1,0,1
1099 522 m 0,41,42
 971 519 971 519 923 361 c 0,43,44
 865 173 865 173 1072 157 c 0,45,46
 1126 153 1126 153 1269 160 c 1,47,48
 1270 273 1270 273 1254 354 c 1,49,50
 1218 525 1218 525 1099 522 c 0,41,42
93 -10 m 0,51,52
EndSplineSet
EndChar

StartChar: arabic_ring
Encoding: 65552 -1 298
Width: 438
GlyphClass: 2
Flags: W
LayerCount: 2
Fore
SplineSet
316 220 m 0,0,1
 316 260 316 260 288 288 c 0,2,3
 260 317 260 317 219 317 c 128,-1,4
 178 317 178 317 150 289 c 128,-1,5
 122 261 122 261 122 220 c 0,6,7
 122 178 122 178 150 150 c 0,8,9
 178 123 178 123 219 123 c 128,-1,10
 260 123 260 123 288 151 c 128,-1,11
 316 179 316 179 316 220 c 0,0,1
438 220 m 128,-1,13
 438 128 438 128 375 64 c 0,14,15
 311 0 311 0 219 0 c 128,-1,16
 127 0 127 0 64 64 c 0,17,18
 0 128 0 128 0 220 c 128,-1,19
 0 312 0 312 64 376 c 0,20,21
 127 439 127 439 219 439 c 128,-1,22
 311 439 311 439 375 376 c 1,23,12
 438 312 438 312 438 220 c 128,-1,13
EndSplineSet
EndChar

StartChar: arabic_gaf_bar
Encoding: 65553 -1 299
Width: 674
GlyphClass: 2
Flags: W
LayerCount: 2
Fore
SplineSet
666 1673 m 1,0,-1
 0 1321 l 1,1,-1
 0 1430 l 1,2,-1
 666 1782 l 1,3,-1
 666 1673 l 1,0,-1
EndSplineSet
EndChar

StartChar: uni066E.init.math
Encoding: 65563 -1 309
Width: 877
GlyphClass: 2
Flags: W
LayerCount: 2
Fore
SplineSet
574 94 m 1,0,1
 501 8 501 8 342 8 c 2,2,-1
 -3 8 l 1,3,-1
 -3 169 l 1,4,-1
 284 169 l 2,5,6
 397 169 397 169 449 222 c 1,7,8
 507 279 507 279 507 400 c 2,9,-1
 507 614 l 1,10,-1
 668 614 l 1,11,-1
 668 400 l 2,12,13
 668 207 668 207 574 94 c 1,0,1
EndSplineSet
EndChar

StartChar: NameMe.337
Encoding: 65565 -1 311
Width: 615
GlyphClass: 2
Flags: W
LayerCount: 2
Fore
SplineSet
273 95 m 1,0,1
 189 0 189 0 81 0 c 2,2,-1
 -20 0 l 1,3,-1
 -20 169 l 1,4,-1
 22 169 l 2,5,6
 128 169 128 169 186 222 c 1,7,8
 253 281 253 281 247 400 c 2,9,-1
 208 1206 l 1,10,-1
 365 1276 l 1,11,-1
 365 400 l 2,12,13
 365 281 365 281 396 237 c 0,14,15
 443 169 443 169 595 169 c 2,16,-1
 636 169 l 1,17,-1
 636 0 l 1,18,-1
 536 0 l 2,19,20
 387 0 387 0 300 95 c 2,21,-1
 287 109 l 1,22,-1
 273 95 l 1,0,1
EndSplineSet
EndChar

StartChar: NameMe.338
Encoding: 65566 -1 312
Width: 532
GlyphClass: 2
Flags: W
LayerCount: 2
Fore
SplineSet
393 437 m 2,0,1
 393 193 393 193 289 90 c 1,2,3
 196 0 196 0 55 0 c 2,4,-1
 -20 0 l 1,5,-1
 -20 169 l 1,6,-1
 13 169 l 2,7,8
 152 169 152 169 216 249 c 0,9,10
 279 327 279 327 273 450 c 2,11,-1
 235 1319 l 1,12,-1
 393 1389 l 1,13,-1
 393 437 l 2,0,1
EndSplineSet
EndChar

